<?xml version="1.0" encoding="UTF-8" standalone="no"?>
<!-- Created with Inkscape (http://www.inkscape.org/) -->

<svg
   width="210mm"
   height="297mm"
   viewBox="0 0 210 297"
   version="1.1"
   id="svg1"
   inkscape:version="1.3.1 (91b66b0783, 2023-11-16)"
   sodipodi:docname="logo-backdark.svg"
   xmlns:inkscape="http://www.inkscape.org/namespaces/inkscape"
   xmlns:sodipodi="http://sodipodi.sourceforge.net/DTD/sodipodi-0.dtd"
   xmlns:xlink="http://www.w3.org/1999/xlink"
   xmlns="http://www.w3.org/2000/svg"
   xmlns:svg="http://www.w3.org/2000/svg">
  <sodipodi:namedview
     id="namedview1"
     pagecolor="#ffffff"
     bordercolor="#000000"
     borderopacity="0.25"
     inkscape:showpageshadow="2"
     inkscape:pageopacity="0.0"
     inkscape:pagecheckerboard="0"
     inkscape:deskcolor="#d1d1d1"
     inkscape:document-units="mm"
     inkscape:zoom="0.33261905"
     inkscape:cx="398.35361"
     inkscape:cy="560.7015"
     inkscape:window-width="1280"
     inkscape:window-height="688"
     inkscape:window-x="0"
     inkscape:window-y="0"
     inkscape:window-maximized="1"
     inkscape:current-layer="layer1" />
  <defs
     id="defs1">
    <linearGradient
       inkscape:collect="always"
       xlink:href="#linearGradient11"
       id="linearGradient12"
       x1="107.43998"
       y1="196.82695"
       x2="109.46571"
       y2="188.74011"
       gradientUnits="userSpaceOnUse"
       gradientTransform="matrix(0.74353558,0,0,0.74353558,26.368912,35.921258)" />
    <linearGradient
       id="linearGradient11"
       inkscape:collect="always">
      <stop
         style="stop-color:#fd552a;stop-opacity:1;"
         offset="0"
         id="stop11" />
      <stop
         style="stop-color:#ff00cc;stop-opacity:1"
         offset="1"
         id="stop12" />
    </linearGradient>
    <clipPath
       clipPathUnits="userSpaceOnUse"
       id="clipPath4">
      <g
         id="g5">
        <path
           id="rect4"
           d="M 0,0 H 500 V 500 H 0 Z" />
      </g>
    </clipPath>
  </defs>
  <g
     inkscape:label="Calque 1"
     inkscape:groupmode="layer"
     id="layer1">
    <rect
       style="fill:#32064a;fill-opacity:1;stroke-width:0.305039"
       id="rect10"
       width="121.16178"
       height="121.16178"
       x="45.333878"
       y="85.103081"
       inkscape:export-filename="logo.png"
       inkscape:export-xdpi="104.81853"
       inkscape:export-ydpi="104.81853" />
    <g
       id="g1"
       transform="translate(0,0.37892641)">
      <circle
         style="fill:#2ad2fd;fill-opacity:1;stroke-width:0.264583"
         id="circle2"
         cx="105.91476"
         cy="160.95563"
         r="3.4386008" />
      <path
         id="path2"
         style="fill:url(#linearGradient12);fill-opacity:1;stroke-width:0.0754443"
         d="m 106.42839,184.22891 c -2.62465,-2.06005 -1.8426,-5.63682 -4.24196,-4.70854 -1.58925,0.66455 -2.978054,-0.76196 -3.656852,-3.65683 5.060542,2.03911 9.885902,1.45339 14.770382,0.18407 -1.15431,5.31397 -7.8709,4.24951 -6.87157,8.1813 z"
         sodipodi:nodetypes="ccccc" />
      <path
         id="path3"
         style="fill:#ffffff;fill-opacity:1;stroke-width:0.254955"
         d="m 114.90595,106.38118 c -2.17278,0 -3.92224,1.74894 -3.92224,3.92173 v 18.85621 h -10.7766 l -0.681614,-15.19649 -14.565518,-7.40937 -2.59571,71.44681 12.31294,-4.79558 -1.27899,-4.92734 5.932458,-3.46646 a 34.141907,34.141907 0 0 1 -0.1819,-3.29799 34.141907,34.141907 0 0 1 6.765994,-20.25613 34.141907,34.141907 0 0 1 6.766,20.25613 34.141907,34.141907 0 0 1 -0.16899,3.30523 l 5.91954,3.45922 -0.55914,2.1549 h 5.94796 v -0.0134 h 1.72341 c 2.17278,0 3.92172,-1.74947 3.92172,-3.92224 v -56.19347 c 0,-2.17279 -1.74894,-3.92173 -3.92172,-3.92173 z" />
      <path
         id="path9"
         clip-path="url(#clipPath4)"
         style="opacity:0.08;fill:#32064a;fill-opacity:1"
         d="m 292.96673,186.45552 c -5.58033,0 -10.26574,3.53545 -12.05573,8.48131 0.66484,0.0901 1.33773,0.15082 2.02737,0.15082 5.99727,0 11.13267,-3.54458 13.53049,-8.63213 z m 29.95457,2.63505 c -8.27999,0 -14.99339,6.71424 -14.99339,14.99523 0,6.528 4.17217,12.08048 9.99616,14.13948 v 41.69993 a 1.6836972,1.6836972 0 0 1 -2.87493,1.19128 l -11.5811,-11.58237 c 0.937,-1.957 1.4612,-4.14978 1.4612,-6.46478 0,-8.28099 -6.7124,-14.99354 -14.99339,-14.99354 -3.78304,0 -7.19731,1.44712 -9.83512,3.75856 v 22.46828 c 2.63785,2.31158 6.05195,3.76024 9.83512,3.76024 2.315,0 4.50651,-0.52372 6.46351,-1.46071 l 16.79701,16.79825 a 16.139573,16.139573 0 0 1 4.7277,11.41122 v 7.47983 a 16.139889,16.139889 0 0 1 -4.7277,11.41122 l -18.35991,18.36403 a 2.2843691,2.2843691 0 0 1 -3.90049,-1.61662 v -14.25979 c 5.823,-2.05799 9.99446,-7.61048 9.99446,-14.13947 0,-8.281 -6.7117,-14.99524 -14.99169,-14.99524 -8.28099,0 -14.99508,6.71424 -14.99508,14.99524 0,6.52899 4.17316,12.08148 9.99615,14.13947 v 24.25605 a 13.315353,13.315353 0 0 1 -0.70347,3.53148 111.99463,111.95778 0 0 1 3.35804,13.46504 l 0.51362,-0.51345 a 13.314389,13.314389 0 0 1 9.41473,-3.8992 h 46.24473 c 0.26307,0.74408 0.58587,1.45873 0.95775,2.14362 v -14.28351 c -0.37187,0.68489 -0.69469,1.39955 -0.95775,2.14363 h -36.24857 a 2.2845428,2.2845428 0 0 1 -1.61545,-3.8992 l 21.28908,-21.29056 a 16.139424,16.139424 0 0 0 4.72601,-11.41291 v -11.61966 a 16.140103,16.140103 0 0 1 4.72771,-11.41122 l 8.07897,-8.0797 v -14.13778 l -9.93174,9.93355 a 1.6836972,1.6836972 0 0 1 -2.87494,-1.19128 v -41.69993 c 5.823,-2.059 9.99616,-7.61148 9.99616,-14.13948 0,-8.28099 -6.7124,-14.99523 -14.99339,-14.99523 z m 0,8.99646 c 3.313,0 5.99736,2.68578 5.99736,5.99877 0,3.312 -2.68436,5.99539 -5.99736,5.99539 -3.31199,0 -5.99735,-2.68339 -5.99735,-5.99539 0,-3.31299 2.68536,-5.99877 5.99735,-5.99877 z m -117.94686,26.98939 c -4.83722,0 -9.09367,2.32929 -11.83537,5.88523 l -0.63228,17.38458 c 1.78365,2.68125 4.38101,4.77362 7.46872,5.8649 v 16.37122 a 0.99576806,0.99576806 0 0 1 -1.70021,0.70494 l -6.37028,-6.37157 -0.50515,13.90054 a 0.99583877,0.99583877 0 0 1 -0.0186,0.5304 l -0.38988,10.70459 h 6.82457 a 12.284873,12.284873 0 0 1 8.68583,3.59756 l 34.76873,34.77085 a 15.996589,15.996589 0 0 1 4.44123,8.54062 111.99463,111.95778 0 0 1 10.23856,-24.58479 v -51.2268 h -9.99446 v 51.1946 a 2.7443828,2.7443828 0 0 1 -4.68533,1.94028 l -27.70006,-27.7028 a 12.285759,12.285759 0 0 1 -3.59875,-8.68636 v -23.68328 c 5.823,-2.058 9.99616,-7.61148 9.99616,-14.13948 0,-8.28099 -6.7134,-14.99523 -14.99339,-14.99523 z m 0,8.99646 c 3.312,0 5.99736,2.68578 5.99736,5.99877 0,3.312 -2.68536,5.99708 -5.99736,5.99708 -3.312,0 -5.99905,-2.68508 -5.99905,-5.99708 0,-3.31299 2.68705,-5.99877 5.99905,-5.99877 z m 84.96141,2.99939 c 3.31199,0 5.99735,2.68508 5.99735,5.99707 0,3.313 -2.68536,5.99708 -5.99735,5.99708 -3.312,0 -5.99736,-2.68408 -5.99736,-5.99708 0,-3.31199 2.68536,-5.99707 5.99736,-5.99707 z m -3.99711,48.98149 c 3.312,0 5.99566,2.68508 5.99566,5.99708 0,3.31299 -2.68366,5.99707 -5.99566,5.99707 -3.312,0 -5.99905,-2.68408 -5.99905,-5.99707 0,-3.312 2.68705,-5.99708 5.99905,-5.99708 z m -67.97116,40.98144 c -8.28099,0 -14.99339,6.71424 -14.99339,14.99523 0,6.52799 4.17317,12.08317 9.99616,14.14117 v 14.18354 a 1.9016821,1.9016821 0 0 1 -3.24617,1.34548 l -20.93989,-20.93977 -0.49497,13.64127 14.36619,14.36655 a 1.9018429,1.9018429 0 0 1 -1.34424,3.24679 h -13.18299 c -0.12244,-0.34634 -0.2958,-0.66567 -0.44243,-0.99979 l -0.47463,13.0685 c 0.35527,-0.66299 0.66325,-1.35454 0.91706,-2.07245 h 23.17915 a 11.083724,11.083724 0 0 1 7.83657,3.2451 l 6.46521,6.46477 -3.19362,-12.29748 3.32414,-1.94197 a 11.084625,11.084625 0 0 1 -2.77322,-7.13075 V 356.1716 c 5.82299,-2.058 9.99446,-7.61318 9.99446,-14.14117 0,-8.28099 -6.7124,-14.99523 -14.99339,-14.99523 z m 0,8.99815 c 3.312,0 5.99736,2.68408 5.99736,5.99708 0,3.312 -2.68536,5.99708 -5.99736,5.99708 -3.312,0 -5.99735,-2.68508 -5.99735,-5.99708 0,-3.313 2.68535,-5.99708 5.99735,-5.99708 z m 109.95095,34.98606 c -6.52799,0 -12.08104,4.17326 -14.13904,9.99626 h -23.64192 l 14.39331,8.40844 -0.41191,1.58612 h 9.66052 c 0.7351,2.08028 1.93055,3.93634 3.4428,5.48023 h 4.98536 v -0.0441 h 5.65325 c 7.12729,0 12.86431,-5.73685 12.86431,-12.86177 v -5.26672 c -2.62313,-4.35556 -7.35149,-7.2985 -12.80668,-7.2985 z m 0,8.99646 c 3.312,0 5.99736,2.68508 5.99736,5.99708 0,3.31299 -2.68536,5.99877 -5.99736,5.99877 -3.31199,0 -5.99735,-2.68578 -5.99735,-5.99877 0,-3.312 2.68536,-5.99708 5.99735,-5.99708 z"
         transform="matrix(0.30485306,0,0,0.3049534,25.443249,49.521176)" />
    </g>
  </g>
</svg>
