<?xml version="1.0" encoding="UTF-8" standalone="no"?>
<!-- Created with Inkscape (http://www.inkscape.org/) -->

<svg
   width="210mm"
   height="297mm"
   viewBox="0 0 210 297"
   version="1.1"
   id="svg1"
   inkscape:version="1.3.2 (091e20ef0f, 2023-11-25)"
   sodipodi:docname="logo-christmas.svg"
   xmlns:inkscape="http://www.inkscape.org/namespaces/inkscape"
   xmlns:sodipodi="http://sodipodi.sourceforge.net/DTD/sodipodi-0.dtd"
   xmlns:xlink="http://www.w3.org/1999/xlink"
   xmlns="http://www.w3.org/2000/svg"
   xmlns:svg="http://www.w3.org/2000/svg">
  <sodipodi:namedview
     id="namedview1"
     pagecolor="#ffffff"
     bordercolor="#000000"
     borderopacity="0.25"
     inkscape:showpageshadow="2"
     inkscape:pageopacity="0.0"
     inkscape:pagecheckerboard="0"
     inkscape:deskcolor="#d1d1d1"
     inkscape:document-units="mm"
     inkscape:zoom="0.61012001"
     inkscape:cx="93.424243"
     inkscape:cy="97.521798"
     inkscape:window-width="1920"
     inkscape:window-height="1048"
     inkscape:window-x="0"
     inkscape:window-y="0"
     inkscape:window-maximized="1"
     inkscape:current-layer="layer1" />
  <defs
     id="defs1">
    <linearGradient
       inkscape:collect="always"
       xlink:href="#linearGradient11"
       id="linearGradient22"
       gradientUnits="userSpaceOnUse"
       gradientTransform="matrix(0.54942895,0,0,0.54942895,-10.501559,48.504392)"
       x1="107.43998"
       y1="196.82695"
       x2="109.46571"
       y2="188.74011" />
    <linearGradient
       id="linearGradient11"
       inkscape:collect="always">
      <stop
         style="stop-color:#fd552a;stop-opacity:1;"
         offset="0"
         id="stop11" />
      <stop
         style="stop-color:#ff00cc;stop-opacity:1"
         offset="1"
         id="stop12" />
    </linearGradient>
    <clipPath
       clipPathUnits="userSpaceOnUse"
       id="clipPath4">
      <g
         id="g5">
        <path
           id="rect4"
           d="M 0,0 H 500 V 500 H 0 Z" />
      </g>
    </clipPath>
  </defs>
  <g
     inkscape:label="Calque 1"
     inkscape:groupmode="layer"
     id="layer1">
    <g
       id="g2"
       inkscape:export-filename="../../../haade/assets/images/logo-christmas.png"
       inkscape:export-xdpi="41.902355"
       inkscape:export-ydpi="41.902355">
      <path
         id="path20"
         style="fill:url(#linearGradient22);fill-opacity:1;stroke-width:0.0557489"
         d="m 48.657671,158.095 c -1.939462,-1.52225 -1.361573,-4.16528 -3.134558,-3.47933 -1.174362,0.49106 -2.200604,-0.56305 -2.702195,-2.70218 3.739439,1.50678 7.305095,1.07396 10.914438,0.13601 -0.852967,3.92671 -5.816131,3.14014 -5.077685,6.0455 z"
         sodipodi:nodetypes="ccccc" />
      <path
         id="path91"
         style="fill:#32064a;fill-opacity:1;stroke-width:0.188397"
         d="m 54.913816,100.96031 c -1.605556,0 -2.898304,1.29236 -2.898304,2.89793 v 13.93362 H 44.05224 l -0.503669,-11.22931 -10.76306,-5.47508 -1.918077,52.79498 9.098536,-3.54366 -0.945098,-3.64101 4.383738,-2.56151 a 25.228856,25.228856 0 0 1 -0.134413,-2.43702 25.228856,25.228856 0 0 1 4.999667,-14.96808 25.228856,25.228856 0 0 1 4.999675,14.96808 25.228856,25.228856 0 0 1 -0.124873,2.44237 l 4.374191,2.55616 -0.413172,1.59235 h 4.395192 v -0.01 h 1.273498 c 1.605557,0 2.89792,-1.29275 2.89792,-2.8983 v -41.52366 c 0,-1.60557 -1.292363,-2.89793 -2.89792,-2.89793 z" />
      <path
         id="path92"
         clip-path="url(#clipPath4)"
         style="opacity:0.08;fill:#ffffff"
         d="m 292.96673,186.45552 c -5.58033,0 -10.26574,3.53545 -12.05573,8.48131 0.66484,0.0901 1.33773,0.15082 2.02737,0.15082 5.99727,0 11.13267,-3.54458 13.53049,-8.63213 z m 29.95457,2.63505 c -8.27999,0 -14.99339,6.71424 -14.99339,14.99523 0,6.528 4.17217,12.08048 9.99616,14.13948 v 41.69993 a 1.6836972,1.6836972 0 0 1 -2.87493,1.19128 l -11.5811,-11.58237 c 0.937,-1.957 1.4612,-4.14978 1.4612,-6.46478 0,-8.28099 -6.7124,-14.99354 -14.99339,-14.99354 -3.78304,0 -7.19731,1.44712 -9.83512,3.75856 v 22.46828 c 2.63785,2.31158 6.05195,3.76024 9.83512,3.76024 2.315,0 4.50651,-0.52372 6.46351,-1.46071 l 16.79701,16.79825 a 16.139573,16.139573 0 0 1 4.7277,11.41122 v 7.47983 a 16.139889,16.139889 0 0 1 -4.7277,11.41122 l -18.35991,18.36403 a 2.2843691,2.2843691 0 0 1 -3.90049,-1.61662 v -14.25979 c 5.823,-2.05799 9.99446,-7.61048 9.99446,-14.13947 0,-8.281 -6.7117,-14.99524 -14.99169,-14.99524 -8.28099,0 -14.99508,6.71424 -14.99508,14.99524 0,6.52899 4.17316,12.08148 9.99615,14.13947 v 24.25605 a 13.315353,13.315353 0 0 1 -0.70347,3.53148 111.99463,111.95778 0 0 1 3.35804,13.46504 l 0.51362,-0.51345 a 13.314389,13.314389 0 0 1 9.41473,-3.8992 h 46.24473 c 0.26307,0.74408 0.58587,1.45873 0.95775,2.14362 v -14.28351 c -0.37187,0.68489 -0.69469,1.39955 -0.95775,2.14363 h -36.24857 a 2.2845428,2.2845428 0 0 1 -1.61545,-3.8992 l 21.28908,-21.29056 a 16.139424,16.139424 0 0 0 4.72601,-11.41291 v -11.61966 a 16.140103,16.140103 0 0 1 4.72771,-11.41122 l 8.07897,-8.0797 v -14.13778 l -9.93174,9.93355 a 1.6836972,1.6836972 0 0 1 -2.87494,-1.19128 v -41.69993 c 5.823,-2.059 9.99616,-7.61148 9.99616,-14.13948 0,-8.28099 -6.7124,-14.99523 -14.99339,-14.99523 z m 0,8.99646 c 3.313,0 5.99736,2.68578 5.99736,5.99877 0,3.312 -2.68436,5.99539 -5.99736,5.99539 -3.31199,0 -5.99735,-2.68339 -5.99735,-5.99539 0,-3.31299 2.68536,-5.99877 5.99735,-5.99877 z m -117.94686,26.98939 c -4.83722,0 -9.09367,2.32929 -11.83537,5.88523 l -0.63228,17.38458 c 1.78365,2.68125 4.38101,4.77362 7.46872,5.8649 v 16.37122 a 0.99576806,0.99576806 0 0 1 -1.70021,0.70494 l -6.37028,-6.37157 -0.50515,13.90054 a 0.99583877,0.99583877 0 0 1 -0.0186,0.5304 l -0.38988,10.70459 h 6.82457 a 12.284873,12.284873 0 0 1 8.68583,3.59756 l 34.76873,34.77085 a 15.996589,15.996589 0 0 1 4.44123,8.54062 111.99463,111.95778 0 0 1 10.23856,-24.58479 v -51.2268 h -9.99446 v 51.1946 a 2.7443828,2.7443828 0 0 1 -4.68533,1.94028 l -27.70006,-27.7028 a 12.285759,12.285759 0 0 1 -3.59875,-8.68636 v -23.68328 c 5.823,-2.058 9.99616,-7.61148 9.99616,-14.13948 0,-8.28099 -6.7134,-14.99523 -14.99339,-14.99523 z m 0,8.99646 c 3.312,0 5.99736,2.68578 5.99736,5.99877 0,3.312 -2.68536,5.99708 -5.99736,5.99708 -3.312,0 -5.99905,-2.68508 -5.99905,-5.99708 0,-3.31299 2.68705,-5.99877 5.99905,-5.99877 z m 84.96141,2.99939 c 3.31199,0 5.99735,2.68508 5.99735,5.99707 0,3.313 -2.68536,5.99708 -5.99735,5.99708 -3.312,0 -5.99736,-2.68408 -5.99736,-5.99708 0,-3.31199 2.68536,-5.99707 5.99736,-5.99707 z m -3.99711,48.98149 c 3.312,0 5.99566,2.68508 5.99566,5.99708 0,3.31299 -2.68366,5.99707 -5.99566,5.99707 -3.312,0 -5.99905,-2.68408 -5.99905,-5.99707 0,-3.312 2.68705,-5.99708 5.99905,-5.99708 z m -67.97116,40.98144 c -8.28099,0 -14.99339,6.71424 -14.99339,14.99523 0,6.52799 4.17317,12.08317 9.99616,14.14117 v 14.18354 a 1.9016821,1.9016821 0 0 1 -3.24617,1.34548 l -20.93989,-20.93977 -0.49497,13.64127 14.36619,14.36655 a 1.9018429,1.9018429 0 0 1 -1.34424,3.24679 h -13.18299 c -0.12244,-0.34634 -0.2958,-0.66567 -0.44243,-0.99979 l -0.47463,13.0685 c 0.35527,-0.66299 0.66325,-1.35454 0.91706,-2.07245 h 23.17915 a 11.083724,11.083724 0 0 1 7.83657,3.2451 l 6.46521,6.46477 -3.19362,-12.29748 3.32414,-1.94197 a 11.084625,11.084625 0 0 1 -2.77322,-7.13075 V 356.1716 c 5.82299,-2.058 9.99446,-7.61318 9.99446,-14.14117 0,-8.28099 -6.7124,-14.99523 -14.99339,-14.99523 z m 0,8.99815 c 3.312,0 5.99736,2.68408 5.99736,5.99708 0,3.312 -2.68536,5.99708 -5.99736,5.99708 -3.312,0 -5.99735,-2.68508 -5.99735,-5.99708 0,-3.313 2.68535,-5.99708 5.99735,-5.99708 z m 109.95095,34.98606 c -6.52799,0 -12.08104,4.17326 -14.13904,9.99626 h -23.64192 l 14.39331,8.40844 -0.41191,1.58612 h 9.66052 c 0.7351,2.08028 1.93055,3.93634 3.4428,5.48023 h 4.98536 v -0.0441 h 5.65325 c 7.12729,0 12.86431,-5.73685 12.86431,-12.86177 v -5.26672 c -2.62313,-4.35556 -7.35149,-7.2985 -12.80668,-7.2985 z m 0,8.99646 c 3.312,0 5.99736,2.68508 5.99736,5.99708 0,3.31299 -2.68536,5.99877 -5.99736,5.99877 -3.31199,0 -5.99735,-2.68578 -5.99735,-5.99877 0,-3.312 2.68536,-5.99708 5.99735,-5.99708 z"
         transform="matrix(0.22526843,0,0,0.22534258,-11.082254,58.944115)" />
      <g
         id="g1"
         transform="matrix(0.31976958,0,0,0.31976958,18.356213,118.57032)">
        <path
           id="path2"
           d="m 72.162777,101.22919 c 0,0 2.683227,-3.995909 2.982383,-5.393616 0.298802,-1.398058 -0.911577,-4.293306 -0.911577,-4.293306 0,0 3.209925,-1.174043 3.794477,-2.233787 0.584552,-1.059744 -1.245658,-2.385483 -1.245658,-2.385483 0,0 3.88126,-0.733073 4.726165,-1.450269 0.844902,-0.717198 0.344662,-2.853973 0.344662,-2.853973 0,0 11.287831,-6.004278 13.411554,-0.924983 2.124427,5.079648 -3.077988,14.556316 -3.077988,14.556316 0,0 -0.989541,-1.564216 -2.545643,-1.277056 -1.556102,0.28716 -1.458735,4.349043 -1.458735,4.349043 0,0 -1.583622,-1.97132 -2.960865,-2.100437 -1.377598,-0.129116 -3.070225,3.312581 -3.070225,3.312581 0,0 -1.926873,-0.800804 -4.258027,-0.831144 -2.331156,-0.02998 -5.730523,1.526114 -5.730523,1.526114"
           style="fill:#96d558;fill-opacity:1;fill-rule:nonzero;stroke:none;stroke-width:0.0352777" />
        <path
           id="path3"
           d="m 95.334279,59.49241 c 0,0 1.373364,4.612922 2.261306,5.732991 0.88759,1.120069 3.891135,2.029883 3.891135,2.029883 0,0 -1.13806,3.222978 -0.69285,4.348692 0.4452,1.125361 2.63278,0.557389 2.63278,0.557389 0,0 -1.905,3.460044 -1.88983,4.568472 0.0155,1.108075 1.98155,2.082094 1.98155,2.082094 0,0 -2.55446,12.527844 -7.823904,10.932583 C 90.425377,88.149254 86.4277,78.104612 86.4277,78.104612 c 0,0 1.83656,0.232833 2.605262,-1.150056 0.769056,-1.383242 -2.425345,-3.893608 -2.425345,-3.893608 0,0 2.528003,0.03351 3.504845,-0.946503 0.976138,-0.980016 -0.600779,-4.476397 -0.600779,-4.476397 0,0 1.843969,-0.976136 3.351742,-2.755194 1.507067,-1.778353 2.470854,-5.390444 2.470854,-5.390444"
           style="fill:#96d558;fill-opacity:1;fill-rule:nonzero;stroke:none;stroke-width:0.0352777" />
        <path
           id="path4"
           d="m 120.8193,100.16098 c 0,0 -4.70466,-1.017407 -6.11364,-0.778579 -1.40936,0.238832 -3.65303,2.433109 -3.65303,2.433109 0,0 -2.27681,-2.548819 -3.47731,-2.700512 -1.20121,-0.152049 -1.75683,2.039052 -1.75683,2.039052 0,0 -2.11491,-3.336217 -3.09352,-3.856211 -0.97895,-0.520348 -2.779179,0.734129 -2.779179,0.734129 0,0 -9.750073,-8.270872 -5.815189,-12.121089 3.935589,-3.850571 14.663918,-2.517423 14.663918,-2.517423 0,0 -1.08797,1.49719 -0.2459,2.83704 0.84137,1.340202 4.58012,-0.250825 4.58012,-0.250825 0,0 -1.24672,2.199568 -0.85831,3.52707 0.38912,1.327857 4.21288,1.629127 4.21288,1.629127 0,0 -0.0325,2.08633 0.80079,4.264025 0.83328,2.177346 3.5352,4.761087 3.5352,4.761087"
           style="fill:#96d558;fill-opacity:1;fill-rule:nonzero;stroke:none;stroke-width:0.0352777" />
        <path
           id="path51"
           d="m 93.128712,86.316925 c -0.22507,0 -0.470252,-0.03175 -0.735542,-0.09595 -0.510116,-0.122767 -0.823735,-0.636059 -0.700968,-1.146175 0.118885,-0.492832 0.600075,-0.803982 1.095375,-0.711555 0.02681,-0.106185 0.07232,-0.208137 0.135466,-0.300918 0.1651,-0.243065 0.433917,-0.395817 0.727427,-0.414161 0.0067,0 0.09878,-0.006 0.256117,-0.01976 0.51929,-0.04657 0.983192,0.34149 1.0287,0.863952 0.02646,0.303742 -0.09313,0.586671 -0.300567,0.779288 -0.05609,0.201787 -0.156278,0.399343 -0.316087,0.572204 -0.291396,0.315031 -0.689681,0.473075 -1.189921,0.473075"
           style="fill:#100f0d;fill-opacity:1;fill-rule:nonzero;stroke:none;stroke-width:0.0352777" />
        <path
           id="path52"
           d="m 93.987727,85.524939 c -0.488598,0 -0.903465,-0.374298 -0.945798,-0.869598 -0.0441,-0.523168 0.343958,-0.982837 0.866775,-1.026935 0.07902,-0.0067 0.174979,-0.01587 0.283281,-0.02681 0.52564,-0.05292 0.987777,0.328083 1.040694,0.849841 0.05292,0.522111 -0.327729,0.987777 -0.849842,1.040694 -0.120295,0.01199 -0.226129,0.02188 -0.313619,0.02928 -0.02752,0.0024 -0.05468,0.0035 -0.08149,0.0035"
           style="fill:#100f0d;fill-opacity:1;fill-rule:nonzero;stroke:none;stroke-width:0.0352777" />
        <path
           id="path53"
           d="m 102.06316,80.689061 c -0.13758,0 -0.27728,-0.02999 -0.40957,-0.09349 -0.47343,-0.226483 -0.67346,-0.79375 -0.44662,-1.267177 0.36019,-0.752475 0.5588,-1.309511 0.66181,-1.673225 -0.002,-7.15e-4 -0.005,-0.0011 -0.007,-0.0018 -0.77329,-0.149225 -1.941333,-0.37465 -2.738258,-1.266472 -0.19826,-0.221897 -0.426508,-0.607484 -0.389467,-1.183922 0.05927,-0.923925 0.898173,-2.081389 1.779415,-3.056114 -1.018119,-0.05997 -1.975206,-0.302331 -2.4571,-0.920397 -0.773642,-0.993423 -0.02151,-2.998611 0.956733,-4.798131 -0.746477,-0.295275 -1.759656,-0.776111 -2.771775,-1.504597 -2.053873,-1.477786 -3.016601,-6.361994 -3.119614,-6.914091 -0.09595,-0.515761 0.243771,-1.011414 0.759179,-1.107722 0.517525,-0.09631 1.012119,0.243063 1.108779,0.759177 0.33655,1.796698 1.27494,4.938889 2.361142,5.720292 1.620662,1.16593 3.277306,1.592086 3.293886,1.595966 0.29245,0.07373 0.53375,0.282223 0.64805,0.56127 0.1143,0.279047 0.0907,0.596194 -0.066,0.853722 -0.86536,1.425222 -1.590318,3.098094 -1.611485,3.68688 0.463195,0.205317 1.923695,0.230011 3.237795,0.04127 0.41557,-0.05927 0.82409,0.162631 0.99907,0.545748 0.17533,0.383469 0.0769,0.836436 -0.2413,1.112661 -1.45274,1.258711 -2.79824,2.833511 -2.96404,3.445933 0.39123,0.334433 1.0421,0.460375 1.5748,0.563033 0.6544,0.126295 1.46896,0.283633 1.62277,1.105606 0.15452,0.832555 -0.51258,2.397125 -0.92357,3.255786 -0.16298,0.340783 -0.50306,0.53975 -0.85725,0.53975"
           style="fill:#100f0d;fill-opacity:1;fill-rule:nonzero;stroke:none;stroke-width:0.0352777" />
        <path
           id="path54"
           d="m 85.639594,80.527136 c -0.41769,0 -0.800452,-0.277636 -0.915811,-0.699911 -0.396171,-1.452033 -0.506238,-2.857852 -0.510823,-2.917119 -0.02928,-0.389114 0.182385,-0.756708 0.533752,-0.926747 0.01199,-0.006 1.062215,-0.515408 1.842206,-0.974019 -0.228599,-0.691445 -1.128183,-2.240845 -2.121958,-3.623734 -0.219781,-0.305858 -0.238125,-0.712963 -0.04692,-1.037166 0.191203,-0.324556 0.556683,-0.504825 0.92992,-0.461081 0.512588,0.05891 1.473555,0.05962 2.04329,-0.162983 0.128765,-0.537633 -0.113594,-2.231672 -0.543984,-3.726039 -0.08184,-0.28328 -0.02681,-0.588433 0.147461,-0.825853 0.174625,-0.237419 0.449439,-0.380647 0.744363,-0.386997 0.04904,-0.0021 1.393825,-0.06668 2.563635,-1.206853 0.952148,-0.927452 2.251427,-4.194174 2.846565,-6.035322 0.16157,-0.499886 0.6985,-0.772583 1.196268,-0.611716 0.499181,0.161219 0.772935,0.697089 0.611717,1.196269 -0.172509,0.533047 -1.730727,5.254978 -3.328459,6.811786 -0.92075,0.897467 -1.931458,1.3335 -2.686401,1.545167 0.651578,2.695222 0.475543,4.327524 -0.526699,4.857397 -0.425098,0.224366 -0.922866,0.348544 -1.401585,0.413808 0.912987,1.434042 1.664404,2.9337 1.501775,3.796947 -0.06632,0.354189 -0.261408,0.651581 -0.548571,0.837847 -0.525637,0.340431 -1.272117,0.736247 -1.79211,1.001536 0.06562,0.492831 0.183092,1.214967 0.37959,1.934633 0.137935,0.506237 -0.160163,1.028348 -0.666398,1.166636 -0.08361,0.02293 -0.167924,0.03351 -0.250825,0.03351"
           style="fill:#100f0d;fill-opacity:1;fill-rule:nonzero;stroke:none;stroke-width:0.0352777" />
        <path
           id="path55"
           d="m 93.887892,75.611531 c -0.0046,0 -0.0085,0 -0.0127,0 -0.524582,-0.0067 -0.944388,-0.437797 -0.937332,-0.962378 l 0.09137,-7.060847 c 0.0067,-0.520699 0.430741,-0.937683 0.949679,-0.937683 0.0042,0 0.0085,0 0.0127,0 0.524579,0.0067 0.944385,0.437797 0.937329,0.962378 l -0.09172,7.060847 c -0.0063,0.5207 -0.430389,0.937683 -0.949324,0.937683"
           style="fill:#100f0d;fill-opacity:1;fill-rule:nonzero;stroke:none;stroke-width:0.0352777" />
        <path
           id="path56"
           d="m 116.61066,99.388048 c -0.26882,0 -0.53552,-0.113597 -0.72356,-0.334082 -0.36335,-0.42686 -3.5641,-4.231923 -4.05058,-6.408915 -0.28046,-1.254828 -0.121,-2.343853 0.0945,-3.097739 -2.63559,-0.860425 -3.93205,-1.8669 -3.85691,-2.998258 0.0318,-0.479779 0.18733,-0.968729 0.38346,-1.410054 -1.70143,0.02506 -3.37079,-0.123471 -4.0206,-0.715079 -0.26634,-0.242713 -0.41698,-0.564798 -0.42474,-0.907346 -0.0141,-0.626534 0.0413,-1.471084 0.0882,-2.052814 -1.01988,-0.456847 -2.74425,-1.09855 -3.8301,-0.971197 -0.523525,0.05927 -0.993073,-0.312208 -1.054457,-0.833261 -0.06068,-0.521053 0.311857,-0.993069 0.833257,-1.0541 2.14172,-0.250825 5.15619,1.267883 5.49274,1.442156 0.34679,0.179211 0.54859,0.55245 0.50872,0.940505 0,0.01341 -0.11854,1.17475 -0.13793,2.079977 0.70943,0.16863 2.50084,0.216607 4.19841,0.09596 0.37182,-0.03069 0.73131,0.171098 0.90768,0.504118 0.17568,0.333023 0.13795,0.738717 -0.0963,1.03364 -0.3189,0.405342 -0.82444,1.223081 -0.93379,1.824567 0.38981,0.391935 1.95863,1.075618 3.45651,1.49366 0.28398,0.07902 0.51507,0.28575 0.62582,0.5588 0.11007,0.27305 0.0878,0.582438 -0.0614,0.83679 -0.0241,0.04268 -0.67485,1.221316 -0.3189,2.815518 0.28998,1.29681 2.38831,4.117623 3.64278,5.591175 0.34044,0.399344 0.2921,0.999067 -0.10724,1.339144 -0.17886,0.1524 -0.39793,0.226838 -0.6156,0.226838"
           style="fill:#100f0d;fill-opacity:1;fill-rule:nonzero;stroke:none;stroke-width:0.0352777" />
        <path
           id="path57"
           d="m 93.988079,85.524939 c -0.197909,0 -0.397934,-0.06173 -0.568677,-0.189793 -0.420159,-0.314325 -0.505532,-0.909815 -0.190852,-1.329621 l 0.171095,-0.226484 c 0.318559,-0.416983 0.915813,-0.498475 1.332442,-0.179916 0.417338,0.318558 0.498475,0.913341 0.179917,1.330325 l -0.0021,0.0024 -0.160867,0.21237 c -0.186266,0.249063 -0.472016,0.380648 -0.760941,0.380648"
           style="fill:#100f0d;fill-opacity:1;fill-rule:nonzero;stroke:none;stroke-width:0.0352777" />
        <path
           id="path58"
           d="m 103.35997,96.693883 z m 3.04835,3.873497 c -0.0504,0 -0.1016,-0.004 -0.1524,-0.0123 -0.29845,-0.0487 -0.55634,-0.23672 -0.69355,-0.50589 -0.75848,-1.484484 -1.80164,-2.979909 -2.29165,-3.306582 -0.41839,0.286102 -1.20579,1.516592 -1.73461,2.733675 -0.16827,0.38594 -0.5722,0.615247 -0.98919,0.564087 -0.41874,-0.05256 -0.75247,-0.373939 -0.820204,-0.789864 -0.309033,-1.896888 -0.942975,-3.868914 -1.377598,-4.331406 -0.489302,0.15734 -0.938389,0.645231 -1.305277,1.044575 -0.451204,0.491067 -1.011414,1.10349 -1.793875,0.800452 -0.347133,-0.133702 -0.821266,-0.553509 -1.157816,-0.881944 -0.375005,-0.366535 -0.382413,-0.968023 -0.01588,-1.343377 0.366887,-0.375708 0.967668,-0.382413 1.343729,-0.01622 0.07126,0.06985 0.136879,0.131588 0.196498,0.185915 0.0099,-0.01024 0.01939,-0.02082 0.02822,-0.03069 0.533045,-0.579614 1.338085,-1.45556 2.515304,-1.665464 0.294216,-0.05186 0.740833,-0.04374 1.212146,0.289983 0.755293,0.535517 1.299983,1.857375 1.667223,3.119263 0.58526,-0.835025 1.29434,-1.522942 2.07328,-1.608315 1.24883,-0.137583 2.56362,1.55575 3.58139,3.333398 0.64313,-0.480483 1.58433,-1.090438 2.7358,-1.569863 2.33502,-0.97155 6.99841,0.772938 7.52263,0.97508 0.48929,0.188735 0.73271,0.738362 0.54433,1.227667 -0.18873,0.489653 -0.73941,0.732718 -1.22836,0.545041 -1.7064,-0.657225 -4.87328,-1.507066 -6.10835,-0.993423 -1.8609,0.7747 -3.07446,1.952622 -3.08645,1.964262 -0.17886,0.17569 -0.41875,0.27164 -0.66535,0.272"
           style="fill:#100f0d;fill-opacity:1;fill-rule:nonzero;stroke:none;stroke-width:0.0352777" />
        <path
           id="path59"
           d="m 92.229129,95.240085 c -0.378529,0 -0.736246,-0.227542 -0.883709,-0.600779 -0.351012,-0.88759 -1.40476,-3.9878 -0.222953,-6.613525 0.633941,-1.40829 2.042935,-2.868435 3.11291,-3.845277 0.388056,-0.35419 0.988131,-0.326321 1.342318,0.06103 0.353484,0.38735 0.326321,0.988483 -0.06138,1.341967 -1.325385,1.210029 -2.270477,2.354439 -2.661002,3.221921 -0.696031,1.546929 -0.32385,3.66677 0.256823,5.13503 0.192969,0.487892 -0.04622,1.03999 -0.534106,1.232959 -0.114652,0.04516 -0.232834,0.06667 -0.348898,0.06667"
           style="fill:#100f0d;fill-opacity:1;fill-rule:nonzero;stroke:none;stroke-width:0.0352777" />
        <path
           id="path60"
           d="m 116.60925,99.388048 c -0.17393,0 -0.3503,-0.04798 -0.508,-0.148167 l -10.64437,-6.757106 c -0.4431,-0.281165 -0.57396,-0.868186 -0.29281,-1.311275 0.28083,-0.442736 0.8682,-0.574324 1.31127,-0.292807 l 10.64403,6.757106 c 0.44307,0.281165 0.57396,0.868186 0.29316,1.311275 -0.18098,0.285044 -0.48861,0.440974 -0.80328,0.440974"
           style="fill:#100f0d;fill-opacity:1;fill-rule:nonzero;stroke:none;stroke-width:0.0352777" />
        <path
           id="path61"
           d="m 70.53506,100.39099 c -0.186618,0 -0.375002,-0.0547 -0.53975,-0.16862 -0.431448,-0.298454 -0.539398,-0.890414 -0.240948,-1.321862 1.101021,-1.59244 2.906538,-4.6101 3.064582,-5.927725 0.195085,-1.622073 -0.570442,-2.729442 -0.60325,-2.775657 -0.167923,-0.238476 -0.219782,-0.544687 -0.135467,-0.824087 0.08396,-0.2794 0.289631,-0.508352 0.561269,-0.614539 1.449212,-0.567267 2.941462,-1.404409 3.290358,-1.832327 -0.168979,-0.587375 -0.753885,-1.350786 -1.113012,-1.722967 -0.261057,-0.270581 -0.338667,-0.670277 -0.196498,-1.018469 0.141816,-0.348191 0.475191,-0.580673 0.851252,-0.591962 1.702154,-0.05045 3.479096,-0.277284 4.167364,-0.515761 -0.10936,-0.899231 -0.3429,-2.04223 -0.345368,-2.055636 -0.07867,-0.382058 0.08502,-0.773642 0.412043,-0.986719 0.111477,-0.07267 2.754842,-1.780822 4.871509,-1.9685 0.519993,-0.04551 0.983543,0.340078 1.03011,0.862541 0.04621,0.522464 -0.340077,0.983898 -0.862542,1.030464 -1.093258,0.09666 -2.578452,0.832556 -3.463218,1.340556 0.104775,0.574321 0.244475,1.408994 0.293158,2.034117 0.02681,0.341488 -0.09102,0.676979 -0.331965,0.944738 -0.58702,0.65405 -2.234493,0.968375 -3.928533,1.114073 0.239183,0.419806 0.44309,0.890764 0.522817,1.364898 0.188031,1.1176 -1.001184,2.24931 -3.538009,3.369027 0.290338,0.728485 0.558096,1.795991 0.404638,3.072693 -0.265996,2.215092 -3.069873,6.321073 -3.388783,6.782152 -0.18415,0.266702 -0.480838,0.409572 -0.781757,0.409572"
           style="fill:#100f0d;fill-opacity:1;fill-rule:nonzero;stroke:none;stroke-width:0.0352777" />
        <path
           id="path62"
           d="m 80.804069,100.54339 c -0.213432,0 -0.423686,-0.0723 -0.594077,-0.20884 -0.01199,-0.009 -1.356784,-1.066801 -3.267075,-1.645709 -1.215321,-0.3683 -4.22769,0.713669 -5.978525,1.599849 -0.467784,0.23707 -1.039638,0.0494 -1.27635,-0.418749 -0.237067,-0.468135 -0.04939,-1.039635 0.418745,-1.276702 0.500946,-0.253648 4.965348,-2.45745 7.386815,-1.722615 1.1938,0.361599 2.19075,0.874184 2.879018,1.28764 0.832557,-1.864783 1.963915,-3.674888 3.218392,-3.674888 0.0039,0 0.0078,0 0.01164,0 0.783521,0.0071 1.557866,0.620184 2.223558,1.392767 0.238832,-1.292225 0.648758,-2.661708 1.346906,-3.27025 0.435327,-0.379942 0.878417,-0.432504 1.176867,-0.409927 1.192742,0.09102 2.080683,0.88124 2.66841,1.403702 l 0.164748,0.145698 c 0.395817,0.34431 0.437444,0.944385 0.09313,1.340202 -0.343959,0.395465 -0.944385,0.437798 -1.340202,0.09313 l -0.180271,-0.159453 c -0.404636,-0.359834 -0.899936,-0.8001 -1.402996,-0.907347 -0.38594,0.503415 -0.819504,2.529065 -0.937331,4.447472 -0.02574,0.42051 -0.325967,0.773993 -0.7366,0.867833 -0.410282,0.09313 -0.835025,-0.09419 -1.040694,-0.462492 -0.648054,-1.157816 -1.554691,-2.303288 -1.999546,-2.545998 -0.455083,0.373944 -1.343377,1.966383 -1.94945,3.519665 -0.110067,0.281522 -0.347485,0.494242 -0.639585,0.572562 -0.08078,0.0215 -0.16369,0.0324 -0.245533,0.0324"
           style="fill:#100f0d;fill-opacity:1;fill-rule:nonzero;stroke:none;stroke-width:0.0352777" />
        <path
           id="path63"
           d="m 94.288645,85.497071 c -0.307268,0 -0.608541,-0.148873 -0.791278,-0.423334 l -0.12418,-0.183798 c -0.296685,-0.432858 -0.185912,-1.024114 0.246946,-1.320448 0.432859,-0.296685 1.024112,-0.185912 1.320446,0.246946 l 0.137231,0.2032 c 0.291042,0.436738 0.173215,1.026584 -0.263173,1.317625 -0.161925,0.10795 -0.345369,0.159809 -0.525992,0.159809"
           style="fill:#100f0d;fill-opacity:1;fill-rule:nonzero;stroke:none;stroke-width:0.0352777" />
        <path
           id="path64"
           d="m 72.164187,98.53256 c -0.30621,0 -0.607129,-0.147812 -0.79022,-0.421217 -0.292455,-0.436033 -0.175332,-1.026229 0.26035,-1.318329 l 7.530393,-5.045781 c 0.435682,-0.292452 1.026232,-0.175332 1.317977,0.26035 0.2921,0.435681 0.175332,1.025877 -0.26035,1.317977 l -7.530393,5.046133 c -0.162277,0.108656 -0.346427,0.160867 -0.527757,0.160867"
           style="fill:#100f0d;fill-opacity:1;fill-rule:nonzero;stroke:none;stroke-width:0.0352777" />
        <path
           id="path65"
           d="m 97.644975,86.136656 c -0.999067,-0.0127 -1.798463,-0.833615 -1.785763,-1.832681 0.01304,-0.999067 0.833615,-1.798812 1.832681,-1.785761 0.999419,0.01304 1.798815,0.833261 1.786115,1.832682 -0.01304,0.999066 -0.833967,1.798812 -1.833033,1.78576 z m -3.098448,-7.828139 c 0.0127,-0.999419 0.83326,-1.799166 1.832327,-1.786114 0.999421,0.01305 1.799166,0.833614 1.786114,1.832681 -0.0127,0.999419 -0.83326,1.799166 -1.832681,1.786114 -0.999067,-0.01305 -1.798812,-0.833614 -1.78576,-1.832681 z m -4.235098,6.344004 c -0.999419,-0.01304 -1.798812,-0.833615 -1.785761,-1.832682 0.0127,-0.999418 0.833261,-1.798814 1.832682,-1.786114 0.999067,0.01341 1.798812,0.833614 1.78576,1.833033 -0.01304,0.999067 -0.833615,1.798815 -1.832681,1.785763 z M 99.93062,81.00762 c 0.21802,-0.562681 0.34678,-1.170164 0.35525,-1.809045 0.037,-2.870552 -2.26025,-5.227813 -5.13045,-5.265208 -2.272593,-0.02963 -4.21781,1.406172 -4.950883,3.428295 -0.271992,-0.04762 -0.549275,-0.08008 -0.834319,-0.08361 -2.8702,-0.03739 -5.227814,2.259542 -5.265208,5.130095 -0.03704,2.870906 2.260248,5.227814 5.130448,5.265208 0.908402,0.01164 1.764242,-0.211315 2.512835,-0.61101 0.818092,1.748718 2.577394,2.973562 4.637617,3.00002 2.870906,0.0374 5.22781,-2.259541 5.26521,-5.130445 0.0201,-1.556105 -0.64911,-2.95769 -1.7205,-3.924301"
           style="fill:#100f0d;fill-opacity:1;fill-rule:nonzero;stroke:none;stroke-width:0.0352777" />
      </g>
      <text
         xml:space="preserve"
         style="font-size:39.1023px;font-family:Gidugu;-inkscape-font-specification:'Gidugu, Normal';fill:#32064a;fill-opacity:1;stroke-width:0.195511"
         x="67.777802"
         y="148.22639"
         id="text1"><tspan
           sodipodi:role="line"
           id="tspan1"
           style="font-style:normal;font-variant:normal;font-weight:normal;font-stretch:normal;font-size:46.9228px;font-family:GROBOLD;-inkscape-font-specification:'GROBOLD, Normal';font-variant-ligatures:normal;font-variant-caps:normal;font-variant-numeric:normal;font-variant-east-asian:normal;opacity:1;fill:#32064a;fill-opacity:1;stroke-width:0.195511"
           x="67.777802"
           y="148.22639">aade</tspan></text>
      <path
         id="path14"
         d="m 144.43755,128.51557 c -0.14477,7e-4 -0.26152,0.11884 -0.26071,0.26351 5.7e-4,0.15158 -0.0144,0.29946 -0.0451,0.43953 -0.21666,0.9924 -1.14227,1.66691 -2.15239,1.56769 -7e-5,0 -2.2e-4,0 -2.8e-4,0 -0.0879,-0.009 -0.1646,-0.0201 -0.23478,-0.0355 -0.0519,-0.0113 -0.10403,-0.0286 -0.15619,-0.045 0.15348,-0.20535 0.29475,-0.42241 0.4197,-0.65048 0.19223,-0.35092 0.34672,-0.72387 0.46486,-1.11184 0.0202,7.9e-4 0.0406,0.003 0.061,0.003 0.64747,0 1.2508,-0.38966 1.51051,-0.99219 0.0498,-0.11524 0.0223,-0.25621 -0.0796,-0.3292 -0.14277,-0.10232 -0.3336,-0.0417 -0.39708,0.11034 -0.1647,0.39347 -0.54386,0.65539 -0.95955,0.68362 0.0108,-0.0527 0.0215,-0.10543 0.031,-0.15799 8e-5,-2e-4 8e-5,-3.1e-4 8e-5,-3.1e-4 0.10723,-0.58951 0.12605,-1.17972 0.0561,-1.75452 -0.0175,-0.14367 -0.14787,-0.24539 -0.29195,-0.22847 -0.14377,0.0176 -0.24609,0.14828 -0.22847,0.29205 0.0635,0.52223 0.0461,1.05958 -0.0515,1.59682 0,0 -8e-5,0 -8e-5,1e-4 -0.0116,0.0641 -0.0236,0.12796 -0.0377,0.19223 -0.0952,0.43633 -0.2441,0.85283 -0.43743,1.2446 -2.3e-4,1e-4 -2.8e-4,1e-4 -5.7e-4,2e-4 -0.73268,-0.30576 -1.23148,-1.03184 -1.23558,-1.83651 -5.7e-4,-0.15178 0.0144,-0.29956 0.0448,-0.43933 0.0103,-0.0472 0.024,-0.0925 0.0376,-0.13806 l 0.002,-0.007 c 0.0267,-0.0906 0.004,-0.19133 -0.065,-0.25591 -0.16049,-0.15058 -0.38717,-0.0637 -0.43993,0.11404 -0.0172,0.0577 -0.0339,0.11514 -0.0472,0.17521 -0.0387,0.17751 -0.0578,0.36384 -0.057,0.55377 0,0 0,9e-5 0,9e-5 v 1e-4 c 0.005,0.9959 0.61033,1.89608 1.50541,2.29446 7e-5,3.2e-4 7e-5,4e-4 2.2e-4,5.1e-4 -0.12996,0.20655 -0.27313,0.40249 -0.42902,0.58401 -7e-5,1e-4 -2.2e-4,3.1e-4 -2.8e-4,4e-4 -0.25501,0.29625 -0.54005,0.55276 -0.84732,0.76211 -0.0267,0.0181 -0.0482,0.0409 -0.0659,0.0657 -0.47257,-0.27343 -1.01933,-0.43252 -1.60363,-0.43252 -0.55096,0 -1.06979,0.13967 -1.52353,0.38486 -0.0142,-0.0159 -0.0297,-0.0309 -0.0483,-0.0435 -0.30787,-0.20845 -0.59352,-0.46426 -0.84923,-0.75991 -7e-5,-1e-4 -2.2e-4,-3.1e-4 -2.8e-4,-4e-4 -0.15639,-0.18112 -0.30006,-0.37665 -0.43042,-0.5828 0,-1e-4 8e-5,-3.1e-4 8e-5,-5.1e-4 0.89417,-0.40089 1.4971,-1.30257 1.4995,-2.29837 5.7e-4,-0.19003 -0.0191,-0.37625 -0.0583,-0.55397 -0.002,-0.01 -0.004,-0.0191 -0.007,-0.0286 -0.0199,-0.0822 -0.10533,-0.13066 -0.18683,-0.10823 l -0.21276,0.0658 c -0.0776,0.024 -0.12374,0.10362 -0.10612,0.18282 l 2.8e-4,0.001 c 0.0309,0.14007 0.0465,0.28785 0.046,0.43943 -0.002,0.80497 -0.4989,1.53224 -1.23088,1.83981 -7e-5,0 -2.8e-4,-1e-4 -2.8e-4,-1e-4 -0.19454,-0.39127 -0.34441,-0.80757 -0.44073,-1.24409 -0.0141,-0.0639 -0.0263,-0.12766 -0.0382,-0.19153 -0.0981,-0.53184 -0.11744,-1.06378 -0.0573,-1.58171 0.0142,-0.12244 -0.0473,-0.2475 -0.16279,-0.29075 -0.167,-0.0627 -0.33631,0.0485 -0.35603,0.21336 -0.0687,0.57509 -0.0483,1.1654 0.0604,1.75441 0.01,0.0528 0.0206,0.10553 0.0315,0.15829 -0.4124,-0.0265 -0.78735,-0.28254 -0.95575,-0.6686 -0.0511,-0.11704 -0.17311,-0.19454 -0.29796,-0.16841 -0.1677,0.0352 -0.2537,0.20986 -0.19073,0.35934 0.25681,0.60993 0.86414,1.00491 1.51592,1.00491 0.0216,0 0.0434,-0.003 0.0651,-0.004 0.11905,0.38767 0.27454,0.76022 0.46777,1.11094 0.12555,0.22767 0.26742,0.44423 0.42131,0.64928 -0.0521,0.0163 -0.10413,0.0338 -0.15609,0.0454 -0.0695,0.0153 -0.14638,0.0271 -0.23519,0.0361 v 0 c -1.00991,0.0995 -1.93713,-0.57059 -2.15619,-1.56228 -0.0312,-0.14127 -0.0468,-0.29065 -0.0461,-0.44374 5.7e-4,-0.14337 -0.11844,-0.25861 -0.26181,-0.25861 v 0 c -0.14258,0 -0.26192,0.11394 -0.26252,0.25641 -8.5e-4,0.19183 0.0187,0.37976 0.0583,0.55887 0.25801,1.16801 1.29366,1.98389 2.46677,1.98389 0.0752,0 0.15118,-0.005 0.22738,-0.0115 7e-5,0 7e-5,0 7e-5,0 0.009,0 0.0177,-3.1e-4 0.0266,-0.001 0.10943,-0.0109 0.20615,-0.0259 0.29586,-0.0457 0.13506,-0.0299 0.27002,-0.0735 0.40318,-0.12815 2.3e-4,0 2.9e-4,1e-4 2.9e-4,1e-4 0.15368,0.16469 0.31598,0.31718 0.48638,0.45625 0,2e-4 0,3.1e-4 -7e-5,5.9e-4 -0.32539,0.10463 -0.6591,0.26843 -0.97738,0.4944 -1.07129,0.76051 -1.56108,1.9128 -1.11334,2.59562 8e-5,8e-5 2.2e-4,2.3e-4 2.8e-4,2.3e-4 0.33681,-0.0152 0.70735,-0.10994 1.0769,-0.28054 2.2e-4,7e-5 2.8e-4,2.2e-4 5.7e-4,3.1e-4 0.0784,1.19324 1.27694,3.62627 3.20916,3.64229 0.006,0 0.0126,0 0.0189,0 0.6621,0 1.30187,-0.28755 1.85113,-0.83221 0.78805,-0.78164 1.27964,-1.97617 1.34091,-2.76873 2.9e-4,-7e-5 2.9e-4,-7e-5 5.7e-4,-2.2e-4 0.38596,0.18522 0.77453,0.28874 1.12646,0.30466 7e-5,-7e-5 2.2e-4,-7e-5 2.8e-4,-2.2e-4 0.44774,-0.68292 -0.042,-1.83511 -1.11334,-2.59573 -0.31798,-0.22567 -0.65138,-0.38937 -0.97647,-0.49399 -8e-5,-4e-4 -8e-5,-4e-4 -8e-5,-6e-4 0.18853,-0.15048 0.36684,-0.31818 0.53524,-0.4997 2.3e-4,0 2.9e-4,0 2.9e-4,0 0.13366,0.0544 0.26872,0.0975 0.40348,0.12695 0.0903,0.0199 0.18713,0.0345 0.29576,0.0451 7e-5,0 2.8e-4,2e-4 2.8e-4,2e-4 0.0831,0.008 0.1658,0.0121 0.2479,0.0121 1.17552,0 2.21246,-0.81939 2.46787,-1.9899 0.0388,-0.17761 0.058,-0.36414 0.057,-0.55417 -8.5e-4,-0.14477 -0.12395,-0.255 -0.26362,-0.26081"
         style="fill:#00ffff;fill-opacity:1;fill-rule:nonzero;stroke:none;stroke-width:0.010012" />
      <path
         id="path21"
         d="m 137.75901,134.92168 c -0.3298,0.006 -1.45105,-0.0467 -1.15079,0.92781 0.1639,0.53204 0.64128,0.92231 1.19765,0.90099 0.64177,-0.0246 1.15459,-0.55267 1.15459,-1.20055 0,-0.6635 -1.02674,-0.63136 -1.20145,-0.62825"
         style="fill:#100f0d;fill-opacity:1;fill-rule:nonzero;stroke:none;stroke-width:0.010012" />
      <path
         id="path22"
         d="m 140.48129,134.48836 c 0,0.57649 -0.4145,1.78614 -1.19264,2.55787 -0.45515,0.45135 -0.95355,0.68012 -1.48138,0.68012 -0.005,0 -0.01,0 -0.0151,0 -1.61995,-0.0135 -2.69334,-2.31058 -2.69334,-3.23799 0,-0.0611 0.005,-0.12085 0.009,-0.18092 0.0235,-0.016 0.0475,-0.0303 0.0709,-0.047 0.84322,-0.59862 1.3238,-1.43923 1.27274,-2.10333 0,-2e-4 7e-5,-3.1e-4 2.2e-4,-4e-4 0.39468,-0.22747 0.85093,-0.35963 1.33831,-0.35963 0.50792,0 0.98179,0.14397 1.38757,0.38967 8e-5,1e-4 2.3e-4,2e-4 8e-5,3.1e-4 -0.0712,0.66941 0.4123,1.52964 1.27063,2.13898 0.008,0.006 0.017,0.011 0.0255,0.0169 0.003,0.0485 0.007,0.0963 0.007,0.14537 z m 3.29937,-5.74482 c -0.14487,7.1e-4 -0.26172,0.11884 -0.26091,0.26352 8.5e-4,0.15158 -0.0142,0.29946 -0.0449,0.43953 -0.21666,0.99229 -1.14237,1.6668 -2.15239,1.56758 -7e-5,0 -2.3e-4,0 -2.8e-4,0 -0.088,-0.009 -0.1648,-0.0201 -0.23489,-0.0355 -0.0519,-0.0112 -0.10402,-0.0286 -0.15608,-0.0448 0.15338,-0.20535 0.29465,-0.42241 0.4196,-0.65049 0.19233,-0.35092 0.34682,-0.72387 0.46486,-1.11184 0.0203,8e-4 0.0408,0.003 0.061,0.003 0.64748,0 1.25081,-0.38977 1.51062,-0.9922 0.0497,-0.11523 0.0223,-0.2562 -0.0798,-0.32929 -0.14267,-0.10223 -0.33351,-0.0417 -0.39708,0.11033 -0.1645,0.39357 -0.54365,0.65549 -0.95946,0.68372 0.0109,-0.0527 0.0215,-0.10542 0.0311,-0.15809 0,-9e-5 0,-2e-4 0,-2e-4 0.10723,-0.58951 0.12605,-1.17972 0.0561,-1.75451 -0.0175,-0.14367 -0.14778,-0.2454 -0.29195,-0.22848 -0.14378,0.0175 -0.2461,0.14828 -0.22858,0.29205 0.0637,0.52223 0.0463,1.05948 -0.0515,1.59683 0,0 0,0 0,1e-4 -0.0117,0.0641 -0.0237,0.12785 -0.0377,0.19223 -0.0952,0.43632 -0.244,0.85282 -0.43753,1.24459 -8e-5,0 -2.8e-4,1e-4 -2.8e-4,1e-4 -0.73269,-0.30567 -1.23148,-1.03174 -1.23559,-1.83641 -5.7e-4,-0.15178 0.0144,-0.29956 0.0448,-0.43933 0.0103,-0.0472 0.024,-0.0925 0.0375,-0.13806 l 0.002,-0.007 c 0.0267,-0.0906 0.004,-0.19123 -0.0649,-0.25581 -0.16059,-0.15058 -0.38727,-0.0638 -0.44003,0.11394 -0.0171,0.0578 -0.0339,0.11523 -0.0472,0.17531 -0.0387,0.17751 -0.0578,0.36373 -0.057,0.55376 0,0 0,1e-4 0,1e-4 v 1e-4 c 0.005,0.9958 0.61033,1.89608 1.50541,2.29446 7e-5,2e-4 7e-5,3.1e-4 7e-5,5.1e-4 -0.12975,0.20645 -0.27303,0.40239 -0.42891,0.5839 -8e-5,2.1e-4 -2.3e-4,4e-4 -2.9e-4,4e-4 -0.255,0.29636 -0.53995,0.55287 -0.84732,0.76222 -0.0266,0.0181 -0.0483,0.0409 -0.0658,0.0657 -0.47266,-0.27343 -1.01942,-0.43252 -1.60363,-0.43252 -0.55096,0 -1.06978,0.13967 -1.52363,0.38486 -0.0141,-0.016 -0.0298,-0.0309 -0.0483,-0.0435 -0.30787,-0.20855 -0.59351,-0.46436 -0.84922,-0.75992 -8e-5,-2e-4 -2.3e-4,-3.1e-4 -2.8e-4,-3.9e-4 -0.15639,-0.18122 -0.30007,-0.37666 -0.43042,-0.58281 0,-2e-4 7e-5,-3.1e-4 7e-5,-5.1e-4 0.89418,-0.40088 1.49711,-1.30256 1.49951,-2.29836 5.6e-4,-0.19003 -0.0191,-0.37626 -0.0583,-0.55397 -0.002,-0.01 -0.004,-0.0189 -0.007,-0.0283 -0.02,-0.0824 -0.10553,-0.13105 -0.18733,-0.10843 l -0.21095,0.0653 c -0.0783,0.0242 -0.12505,0.10463 -0.10723,0.18463 v 0 c 0.0309,0.13996 0.0465,0.28784 0.046,0.43942 -0.002,0.80487 -0.4988,1.53215 -1.23078,1.83982 -2.2e-4,0 -2.8e-4,-1e-4 -5.7e-4,-2e-4 -0.19443,-0.39117 -0.34441,-0.80748 -0.44073,-1.244 -0.0141,-0.0639 -0.0263,-0.12776 -0.0382,-0.19153 -0.0981,-0.53184 -0.11734,-1.06378 -0.0573,-1.58171 0.0142,-0.12244 -0.0474,-0.24749 -0.1628,-0.29075 -0.1669,-0.0627 -0.3362,0.0485 -0.35603,0.21336 -0.0687,0.57509 -0.0483,1.1654 0.0605,1.75441 0.01,0.0528 0.0205,0.10553 0.0315,0.15819 -0.41249,-0.0264 -0.78745,-0.28244 -0.95585,-0.6685 -0.0511,-0.11704 -0.17311,-0.19464 -0.29796,-0.1684 -0.1676,0.0351 -0.2537,0.20985 -0.19073,0.35923 0.25681,0.60993 0.86414,1.00491 1.51593,1.00491 0.0216,0 0.0435,-0.003 0.0651,-0.004 0.11914,0.38767 0.27453,0.76022 0.46786,1.11094 0.12545,0.22757 0.26732,0.44424 0.42121,0.64928 -0.0521,0.0163 -0.10413,0.0338 -0.15609,0.0453 -0.0695,0.0154 -0.14638,0.0272 -0.23518,0.0362 v 0 c -1.00992,0.0995 -1.93714,-0.57059 -2.1562,-1.56228 -0.0312,-0.14137 -0.0468,-0.29065 -0.046,-0.44373 5.7e-4,-0.14338 -0.11854,-0.25862 -0.26191,-0.25862 v 0 c -0.14247,0 -0.26192,0.11394 -0.26252,0.25641 -8.5e-4,0.19183 0.0187,0.37976 0.0583,0.55888 0.25802,1.168 1.29366,1.98378 2.46677,1.98378 0.0753,0 0.15118,-0.005 0.22748,-0.0114 v 0 c 0.009,0 0.0177,-4e-4 0.0267,-0.001 0.10933,-0.0109 0.20605,-0.0259 0.29576,-0.0458 0.13516,-0.0299 0.27002,-0.0735 0.40318,-0.12805 2.3e-4,0 2.9e-4,0 2.9e-4,0 0.15368,0.1648 0.31608,0.31718 0.48648,0.45635 -7e-5,2e-4 -7e-5,3.1e-4 -7e-5,5.1e-4 -0.3255,0.10473 -0.6592,0.26852 -0.97748,0.49449 -1.07129,0.76052 -1.56108,1.91281 -1.11334,2.59563 8e-5,7e-5 2.3e-4,2.2e-4 2.9e-4,2.2e-4 0.3368,-0.0152 0.70735,-0.11003 1.07689,-0.28053 2.3e-4,7e-5 2.9e-4,2.2e-4 5.7e-4,2.2e-4 0.0784,1.19334 1.27694,3.62637 3.20916,3.64229 0.006,0 0.0127,0 0.019,0 0.662,0 1.30177,-0.28745 1.85103,-0.83221 0.78815,-0.78154 1.27964,-1.97608 1.34091,-2.76863 2.3e-4,-2.2e-4 2.8e-4,-2.2e-4 5.7e-4,-3.1e-4 0.38606,0.18532 0.77463,0.28885 1.12645,0.30477 8e-5,-8e-5 2.3e-4,-8e-5 2.9e-4,-2.3e-4 0.44783,-0.68292 -0.0421,-1.83511 -1.11334,-2.59572 -0.31809,-0.22568 -0.65139,-0.38937 -0.97648,-0.4941 -8e-5,-3.1e-4 -8e-5,-3.1e-4 -8e-5,-5.1e-4 0.18853,-0.15048 0.36685,-0.31828 0.53535,-0.4997 7e-5,0 2.3e-4,0 2.9e-4,-1e-4 0.13356,0.0545 0.26852,0.0976 0.40338,0.12695 0.0903,0.0199 0.18712,0.0346 0.29576,0.0452 7e-5,0 2.2e-4,2e-4 2.8e-4,2e-4 0.0831,0.008 0.1658,0.0121 0.248,0.0121 1.17551,0 2.21236,-0.81939 2.46777,-1.9899 0.0388,-0.17761 0.058,-0.36414 0.057,-0.55417 -5.7e-4,-0.14477 -0.12395,-0.255 -0.26352,-0.26081"
         style="fill:#100f0d;fill-opacity:1;fill-rule:nonzero;stroke:none;stroke-width:0.010012" />
      <path
         id="path23"
         d="m 136.07849,127.31091 0.0858,-0.0236"
         style="fill:#100f0d;fill-opacity:1;fill-rule:nonzero;stroke:none;stroke-width:0.010012" />
      <path
         id="path24"
         d="m 138.98719,133.91927 c -0.12926,0 -0.2459,0.0537 -0.3293,0.13977 0.006,0.2484 0.20855,0.44824 0.45836,0.44824 0.12925,0 0.24589,-0.0537 0.32929,-0.13967 -0.006,-0.2485 -0.20845,-0.44834 -0.45835,-0.44834"
         style="fill:#100f0d;fill-opacity:1;fill-rule:nonzero;stroke:none;stroke-width:0.010012" />
      <path
         id="path25"
         d="m 137.02773,134.05904 c -0.0834,-0.0861 -0.20004,-0.13977 -0.3293,-0.13977 -0.2499,0 -0.45264,0.19984 -0.45835,0.44834 0.0834,0.086 0.19994,0.13967 0.3293,0.13967 0.2498,0 0.45264,-0.19984 0.45835,-0.44824"
         style="fill:#100f0d;fill-opacity:1;fill-rule:nonzero;stroke:none;stroke-width:0.010012" />
      <g
         id="g3"
         transform="translate(2.6527637,2.8941048)">
        <path
           id="path6"
           d="m 72.281315,115.65367 -1.506567,-0.9025 0.737159,-0.18483 c 0.157141,-0.0394 0.253545,-0.20033 0.214117,-0.35747 -0.03943,-0.15714 -0.200328,-0.25355 -0.357469,-0.21412 l -1.250288,0.3136 c -0.01812,0.005 -0.03533,0.011 -0.05174,0.0187 l -2.345257,-1.40481 c 0.05584,-0.15509 0.08797,-0.32169 0.08797,-0.49603 0,-0.187 -0.03646,-0.36511 -0.100278,-0.52954 l 2.316086,-1.48583 c 0.01333,0.005 0.02667,0.0104 0.04102,0.0134 l 1.25929,0.27508 c 0.15828,0.0345 0.316104,-0.0667 0.350746,-0.22494 0.03453,-0.1584 -0.06678,-0.31622 -0.225057,-0.35086 l -0.729752,-0.15931 1.470444,-0.9433 c 0.136288,-0.0875 0.176285,-0.27063 0.08888,-0.40704 -0.08751,-0.1364 -0.270751,-0.17639 -0.407039,-0.089 l -1.478306,0.94831 0.162269,-0.74251 c 0.03453,-0.15828 -0.06678,-0.31611 -0.225057,-0.35064 -0.15828,-0.0346 -0.316104,0.0667 -0.350632,0.22495 l -0.275081,1.25929 c -0.004,0.0183 -0.0057,0.0366 -0.0063,0.0547 l -2.310391,1.48218 c -0.203406,-0.20762 -0.467775,-0.35484 -0.764394,-0.41262 v -2.76791 c 0.01083,-0.008 0.02359,-0.0123 0.03339,-0.0221 l 0.911393,-0.9114 c 0.114636,-0.11463 0.114636,-0.30208 0,-0.41672 -0.114523,-0.11464 -0.301974,-0.11464 -0.416611,0 l -0.52817,0.52817 v -1.74701 c 0,-0.16204 -0.132641,-0.29456 -0.294682,-0.29456 -0.16204,0 -0.294567,0.13252 -0.294567,0.29456 v 1.75624 l -0.5374,-0.5374 c -0.114637,-0.11464 -0.302088,-0.11464 -0.416724,0 -0.114523,0.11464 -0.114523,0.30209 0,0.41672 l 0.911392,0.9114 c 0.01265,0.0125 0.0286,0.0185 0.04273,0.0283 v 2.76688 c -0.306874,0.0654 -0.577055,0.22768 -0.779777,0.45228 L 62.90092,110.0349 c -10e-4,-0.018 -0.0033,-0.0362 -0.0079,-0.0545 l -0.313597,-1.25017 c -0.03943,-0.15714 -0.200215,-0.25354 -0.357469,-0.21412 v 0 c -0.157141,0.0394 -0.253431,0.20022 -0.214117,0.35747 l 0.184945,0.73716 -1.538246,-0.92142 c -0.139023,-0.0832 -0.320776,-0.0376 -0.404076,0.10142 -0.0833,0.13902 -0.03772,0.32089 0.101304,0.40419 l 1.530269,0.91652 -0.724511,0.18175 c -0.15714,0.0394 -0.253544,0.20022 -0.214116,0.35736 0.03943,0.15725 0.200215,0.25366 0.357469,0.21423 l 1.250288,-0.3136 c 0.01425,-0.004 0.02735,-0.009 0.04045,-0.0146 l 2.365998,1.41711 c -0.0506,0.14837 -0.07931,0.30699 -0.07931,0.47245 0,0.18472 0.03555,0.36066 0.098,0.52338 l -2.306172,1.47945 c -0.01675,-0.007 -0.03396,-0.0131 -0.0523,-0.0171 l -1.25929,-0.27497 c -0.15828,-0.0346 -0.316219,0.0667 -0.350746,0.22494 -0.03453,0.15828 0.06666,0.3161 0.225057,0.35063 l 0.742515,0.16227 -1.509189,0.96814 c -0.136401,0.0875 -0.176398,0.27064 -0.089,0.40704 0.08751,0.1364 0.270751,0.1764 0.407152,0.0889 l 1.501439,-0.96312 -0.15942,0.72975 c -0.03453,0.15828 0.06666,0.31622 0.225057,0.35074 0.15828,0.0345 0.316104,-0.0667 0.350632,-0.22505 l 0.274968,-1.25929 c 0.0032,-0.0144 0.004,-0.0286 0.0049,-0.0429 l 2.311185,-1.48263 c 0.198051,0.20408 0.454786,0.35074 0.743313,0.41239 v 3.10076 c -0.01869,0.0116 -0.03646,0.025 -0.05253,0.041 l -0.911506,0.9115 c -0.114522,0.11452 -0.114522,0.30209 0,0.41661 0.114636,0.11453 0.302088,0.11453 0.416724,0 l 0.547314,-0.54731 v 1.42304 c 0,0.16204 0.132527,0.29468 0.294567,0.29468 0.162041,0 0.294682,-0.13264 0.294682,-0.29468 v -1.39398 l 0.518256,0.51825 c 0.114637,0.11453 0.302089,0.11453 0.416725,0 0.114522,-0.11452 0.114522,-0.30209 0,-0.41661 l -0.911508,-0.91151 c -0.0073,-0.007 -0.01561,-0.0128 -0.02347,-0.0191 v -3.11751 c 0.308698,-0.0602 0.581842,-0.21777 0.78821,-0.43895 l 2.356312,1.41142 c 0.0014,0.0141 0.0026,0.0284 0.0062,0.0426 l 0.313483,1.25029 c 0.03943,0.15726 0.200329,0.25355 0.357469,0.21412 0.157254,-0.0394 0.253544,-0.20022 0.214117,-0.35747 l -0.181641,-0.72451 1.498705,0.89772 c 0.139022,0.0833 0.320777,0.0376 0.404075,-0.10131 0.0833,-0.13902 0.03772,-0.321 -0.101303,-0.40419"
           style="fill:#dde6ef;fill-opacity:1;fill-rule:nonzero;stroke:none;stroke-width:0.0113952" />
        <path
           id="path18"
           d="m 70.785345,115.04391 -1.506567,-0.9025 0.73716,-0.18483 c 0.157254,-0.0394 0.253544,-0.20022 0.214117,-0.35747 -0.03931,-0.15714 -0.200215,-0.25355 -0.357356,-0.21412 l -1.250287,0.3136 c -0.01823,0.005 -0.03533,0.011 -0.05173,0.0187 l -2.345258,-1.40481 c 0.05584,-0.15509 0.08786,-0.32157 0.08786,-0.49592 0,-0.187 -0.03635,-0.36522 -0.100165,-0.52965 l 2.316086,-1.48572 c 0.01333,0.005 0.02655,0.0103 0.04091,0.0134 l 1.259404,0.27485 c 0.158281,0.0346 0.316105,-0.0665 0.350633,-0.22482 0.03453,-0.1584 -0.06666,-0.31622 -0.224943,-0.35075 l -0.729866,-0.15942 1.470444,-0.9433 c 0.136401,-0.0875 0.176512,-0.27064 0.08888,-0.40704 -0.0874,-0.1364 -0.270638,-0.1764 -0.407039,-0.0889 l -1.478078,0.94831 0.16204,-0.74263 c 0.03464,-0.15828 -0.06666,-0.3161 -0.224942,-0.35063 -0.15828,-0.0345 -0.316105,0.0667 -0.350746,0.22494 l -0.274968,1.25941 c -0.004,0.0182 -0.0058,0.0365 -0.0063,0.0546 l -2.310502,1.48218 c -0.203291,-0.20762 -0.467662,-0.35473 -0.764394,-0.41262 v -2.76791 c 0.01094,-0.008 0.02359,-0.0123 0.0335,-0.0221 l 0.911393,-0.91139 c 0.114636,-0.11463 0.114636,-0.30209 0,-0.41672 -0.114523,-0.11452 -0.301974,-0.11452 -0.416611,0 l -0.528284,0.52817 v -1.7469 c 0,-0.16204 -0.132526,-0.29468 -0.294567,-0.29468 -0.162041,0 -0.294568,0.13264 -0.294568,0.29468 v 1.75624 l -0.537514,-0.53751 c -0.114522,-0.11452 -0.302088,-0.11452 -0.416611,0 -0.114636,0.11463 -0.114636,0.30209 0,0.41672 l 0.911507,0.91139 c 0.01242,0.0125 0.02849,0.0185 0.04262,0.0283 v 2.76688 c -0.306873,0.0655 -0.577055,0.22768 -0.779777,0.45239 l -2.355742,-1.41119 c -0.001,-0.018 -0.0033,-0.0362 -0.0079,-0.0543 l -0.313597,-1.25029 c -0.03943,-0.15714 -0.200329,-0.25355 -0.35747,-0.21412 v 0 c -0.15714,0.0394 -0.253544,0.20022 -0.214116,0.35747 l 0.184945,0.73716 -1.538247,-0.92131 c -0.139021,-0.0833 -0.320889,-0.0377 -0.404075,0.10131 -0.0833,0.13902 -0.03772,0.32089 0.101304,0.40419 l 1.530269,0.91652 -0.72451,0.18175 c -0.157255,0.0394 -0.253545,0.20033 -0.214118,0.35747 0.03943,0.15714 0.200329,0.25355 0.357356,0.21412 l 1.250401,-0.3136 c 0.01425,-0.004 0.02724,-0.009 0.04045,-0.0147 l 2.365997,1.41723 c -0.0506,0.14848 -0.07943,0.30699 -0.07943,0.47256 0,0.1846 0.03567,0.36055 0.098,0.52338 l -2.306059,1.47934 c -0.01664,-0.007 -0.03407,-0.013 -0.0523,-0.0171 l -1.259404,-0.27497 c -0.15828,-0.0345 -0.316103,0.0667 -0.350631,0.22495 -0.03464,0.15828 0.06666,0.3161 0.224942,0.35074 l 0.742515,0.16216 -1.509188,0.96814 c -0.136401,0.0875 -0.176398,0.27075 -0.08888,0.40704 0.08752,0.1364 0.270638,0.17651 0.407153,0.0889 l 1.501325,-0.96313 -0.159305,0.72975 c -0.03464,0.1584 0.06666,0.31622 0.224942,0.35075 0.15828,0.0345 0.316104,-0.0667 0.350746,-0.22494 l 0.274967,-1.25941 c 0.0032,-0.0143 0.004,-0.0286 0.0049,-0.0428 l 2.311073,-1.48252 c 0.198163,0.20408 0.454898,0.35063 0.743426,0.41228 v 3.10087 c -0.01869,0.0115 -0.03646,0.0248 -0.05253,0.0409 l -0.911508,0.91151 c -0.114636,0.11452 -0.114636,0.30197 0,0.41661 0.114523,0.11464 0.302089,0.11464 0.416611,0 l 0.547428,-0.54732 v 1.42316 c 0,0.16204 0.132527,0.29457 0.294568,0.29457 0.16204,0 0.294567,-0.13253 0.294567,-0.29457 v -1.3941 l 0.518371,0.51826 c 0.114635,0.11464 0.302087,0.11464 0.416724,0 0.114522,-0.11464 0.114522,-0.30209 0,-0.41661 l -0.911509,-0.91151 c -0.0073,-0.007 -0.01561,-0.0128 -0.02359,-0.0191 v -3.11752 c 0.308698,-0.0603 0.581842,-0.21776 0.788324,-0.43894 l 2.356198,1.41142 c 0.0014,0.0142 0.0026,0.0285 0.0063,0.0426 l 0.313484,1.25029 c 0.03943,0.15714 0.200329,0.25355 0.35747,0.21412 0.157139,-0.0394 0.253543,-0.20022 0.214116,-0.35747 l -0.181754,-0.72451 1.498819,0.89772 c 0.138907,0.0833 0.320776,0.0377 0.404075,-0.10131 0.0833,-0.13902 0.03772,-0.32089 -0.101418,-0.40419"
           style="fill:#ff00cc;fill-opacity:1;fill-rule:nonzero;stroke:none;stroke-width:0.0113952" />
      </g>
    </g>
  </g>
</svg>
