<?xml version="1.0" encoding="UTF-8" standalone="no"?>
<!-- Created with Inkscape (http://www.inkscape.org/) -->

<svg
   width="210mm"
   height="297mm"
   viewBox="0 0 210 297"
   version="1.1"
   id="svg1"
   inkscape:version="1.3.1 (91b66b0783, 2023-11-16)"
   sodipodi:docname="outil-logo-haade.svg"
   xmlns:inkscape="http://www.inkscape.org/namespaces/inkscape"
   xmlns:sodipodi="http://sodipodi.sourceforge.net/DTD/sodipodi-0.dtd"
   xmlns="http://www.w3.org/2000/svg"
   xmlns:svg="http://www.w3.org/2000/svg">
  <sodipodi:namedview
     id="namedview1"
     pagecolor="#ffffff"
     bordercolor="#000000"
     borderopacity="0.25"
     inkscape:showpageshadow="2"
     inkscape:pageopacity="0.0"
     inkscape:pagecheckerboard="0"
     inkscape:deskcolor="#d1d1d1"
     inkscape:document-units="mm"
     showguides="false"
     inkscape:zoom="0.36361267"
     inkscape:cx="268.14247"
     inkscape:cy="534.90985"
     inkscape:window-width="1280"
     inkscape:window-height="688"
     inkscape:window-x="0"
     inkscape:window-y="0"
     inkscape:window-maximized="1"
     inkscape:current-layer="layer1" />
  <defs
     id="defs1">
    <clipPath
       clipPathUnits="userSpaceOnUse"
       id="clipPath4">
      <g
         id="g5">
        <path
           id="rect4"
           d="M 0,0 H 500 V 500 H 0 Z" />
      </g>
    </clipPath>
    <inkscape:path-effect
       effect="fillet_chamfer"
       id="path-effect7"
       is_visible="true"
       lpeversion="1"
       nodesatellites_param="F,0,0,1,0,0,0,1 @ F,0,0,1,0,0,0,1 @ F,0,0,1,0,0,0,1 @ F,0,0,1,0,0,0,1 @ F,0,0,1,0,0,0,1 @ F,0,0,1,0,0,0,1 @ F,0,0,1,0,6.6850105,0,1 @ F,0,0,1,0,6.6850105,0,1 @ F,0,0,1,0,5.5152439,0,1 @ F,0,0,1,0,0,0,1 @ F,0,0,1,0,0,0,1 @ F,0,0,1,0,0,0,1 @ F,0,0,1,0,0,0,1 @ F,0,0,1,0,0,0,1 @ F,0,0,1,0,5.5152439,0,1 @ F,0,0,1,0,5.048588,0,1 @ F,0,0,1,0,5.8102343,0,1 @ F,0,0,1,0,0,0,1 @ F,0,0,1,0,0,0,1 @ F,0,0,1,0,0,0,1 @ F,0,0,1,0,0,0,1 @ F,0,0,1,0,0,0,1 @ F,0,0,1,0,0,0,1 @ F,0,0,1,0,4.9833141,0,1 @ F,0,0,1,0,0,0,1 @ F,0,0,1,0,0,0,1 @ F,0,0,1,0,0,0,1 @ F,0,0,1,0,0,0,1 @ F,0,0,1,0,0,0,1 @ F,0,0,1,0,0,0,1 @ F,0,0,1,0,5.4629736,0,1 @ F,0,0,1,0,6.6257865,0,1 @ F,0,0,1,0,5.088728,0,1 @ F,0,0,1,0,0,0,1 @ F,0,0,1,0,0,0,1 @ F,0,0,1,0,0,0,1 @ F,0,0,1,0,0,0,1 @ F,0,0,1,0,0,0,1 @ F,0,0,1,0,2.4040575,0,1 @ F,0,0,1,0,5.8233738,0,1 @ F,0,0,1,0,0,0,1 @ F,0,0,1,0,0,0,1 @ F,0,0,1,0,0,0,1 @ F,0,0,1,0,0,0,1 @ F,0,0,1,0,0,0,1 @ F,0,0,1,0,9.36358,0,1 @ F,0,0,1,0,2.4040575,0,1 @ F,0,0,1,0,0,0,1 @ F,0,0,1,0,0,0,1 @ F,0,0,1,0,0,0,1 @ F,0,0,1,0,0,0,1 @ F,0,0,1,0,0,0,1 @ F,0,0,1,0,5.088728,0,1 @ F,0,0,1,0,6.6257865,0,1 @ F,0,0,1,0,4.7272315,0,1 @ F,0,0,1,0,4.5912608,0,1 @ F,0,0,1,0,0,0,1 @ F,0,0,1,0,0,0,1 @ F,0,0,1,0,0,0,1 @ F,0,0,1,0,0,0,1 @ F,0,0,1,0,0,0,1 @ F,0,0,1,0,4.5912608,0,1 @ F,0,0,1,0,0,0,1 @ F,0,0,1,0,0,0,1 @ F,0,0,1,0,0,0,1 @ F,0,0,1,0,0,0,1 @ F,0,0,1,0,0,0,1 @ F,0,0,1,0,0,0,1 @ F,0,0,1,0,4.5912608,0,1 @ F,0,0,1,0,0,0,1 @ F,0,0,1,0,0,0,1 @ F,0,0,1,0,0,0,1 @ F,0,0,1,0,0,0,1 @ F,0,0,1,0,0,0,1 @ F,0,0,1,0,4.5912608,0,1 @ F,0,0,1,0,8.8691069,0,1 @ F,0,0,1,0,8.8691069,0,1 @ F,0,0,1,0,6.264173,0,1 @ F,0,0,1,0,0,0,1 @ F,0,0,1,0,0,0,1 @ F,0,0,1,0,0,0,1 @ F,0,0,1,0,0,0,1 @ F,0,0,1,0,0,0,1 @ F,0,0,1,0,6.264173,0,1 @ F,0,0,1,0,4.7272315,0,1 @ F,0,0,1,0,5.048588,0,1 @ F,0,0,1,0,5.5152439,0,1 @ F,0,0,1,0,0,0,1 @ F,0,0,1,0,0,0,1 @ F,0,0,1,0,0,0,1 @ F,0,0,1,0,0,0,1 @ F,0,0,1,0,0,0,1 @ F,0,0,1,0,5.5152439,0,1 @ F,0,0,1,0,6.6850105,0,1 @ F,0,0,1,0,6.6850105,0,1 @ F,0,0,1,0,0,0,1 @ F,0,0,1,0,0,0,1 @ F,0,0,1,0,0,0,1 @ F,0,0,1,0,0,0,1 @ F,0,0,1,0,0,0,1 @ F,0,0,1,0,0,0,1 @ F,0,0,1,0,4.0648046,0,1 @ F,0,0,1,0,0,0,1 @ F,0,0,1,0,0,0,1 @ F,0,0,1,0,0,0,1 @ F,0,0,1,0,0,0,1 @ F,0,0,1,0,0,0,1 @ F,0,1,1,0,4.0648046,0,1 | F,0,0,1,0,0,0,1 @ F,0,0,1,0,0,0,1 @ F,0,0,1,0,0,0,1 @ F,0,0,1,0,0,0,1 | F,0,0,1,0,0,0,1 @ F,0,0,1,0,0,0,1 @ F,0,0,1,0,0,0,1 @ F,0,0,1,0,0,0,1 | F,0,0,1,0,0,0,1 @ F,0,0,1,0,0,0,1 @ F,0,0,1,0,0,0,1 @ F,0,0,1,0,0,0,1 | F,0,0,1,0,0,0,1 @ F,0,0,1,0,0,0,1 @ F,0,0,1,0,0,0,1 @ F,0,0,1,0,0,0,1 | F,0,0,1,0,0,0,1 @ F,0,0,1,0,0,0,1 @ F,0,0,1,0,0,0,1 @ F,0,0,1,0,0,0,1 | F,0,0,1,0,0,0,1 @ F,0,0,1,0,0,0,1 @ F,0,0,1,0,0,0,1 @ F,0,0,1,0,0,0,1 | F,0,0,1,0,0,0,1 @ F,0,0,1,0,0,0,1 @ F,0,0,1,0,0,0,1 @ F,0,0,1,0,0,0,1 | F,0,0,1,0,0,0,1 @ F,0,0,1,0,0,0,1 @ F,0,0,1,0,0,0,1 @ F,0,0,1,0,0,0,1 | F,0,0,1,0,0,0,1 @ F,0,0,1,0,0,0,1 @ F,0,0,1,0,0,0,1 @ F,0,0,1,0,0,0,1 | F,0,0,1,0,0,0,1 @ F,0,0,1,0,0,0,1 @ F,0,0,1,0,0,0,1 @ F,0,0,1,0,0,0,1 | F,0,0,1,0,0,0,1 @ F,0,0,1,0,0,0,1 @ F,0,0,1,0,0,0,1 @ F,0,0,1,0,0,0,1 | F,0,0,1,0,0,0,1 @ F,0,0,1,0,0,0,1 @ F,0,0,1,0,0,0,1 @ F,0,0,1,0,0,0,1 | F,0,0,1,0,0,0,1 @ F,0,0,1,0,0,0,1 @ F,0,0,1,0,0,0,1 @ F,0,0,1,0,0,0,1 | F,0,0,1,0,0,0,1 @ F,0,0,1,0,0,0,1 @ F,0,0,1,0,0,0,1 @ F,0,0,1,0,0,0,1"
       radius="0"
       unit="px"
       method="auto"
       mode="F"
       chamfer_steps="1"
       flexible="false"
       use_knot_distance="true"
       apply_no_radius="true"
       apply_with_radius="true"
       only_selected="false"
       hide_knots="false" />
  </defs>
  <g
     inkscape:label="Calque 1"
     inkscape:groupmode="layer"
     id="layer1">
    <g
       id="g8"
       transform="translate(99.759776,26.215333)">
      <path
         id="path5"
         style="fill:#1b1c37;stroke-width:0.254955"
         d="m 43.184368,93.227542 14.565431,7.409838 2.595471,56.62747 -19.756373,7.40984 z"
         sodipodi:nodetypes="ccccc" />
      <rect
         style="fill:#1b1c37;fill-opacity:1;stroke-width:0.216861"
         id="rect5"
         width="18.481415"
         height="43.020233"
         x="115.8336"
         y="-86.293571"
         transform="rotate(90)" />
      <rect
         style="fill:#1b1c37;fill-opacity:1;stroke-width:0.264583"
         id="rect6"
         width="18.481415"
         height="64.0373"
         x="69.208336"
         y="93.055656"
         ry="3.9220009" />
      <g
         id="g7"
         transform="translate(-0.29151416)">
        <path
           id="path6"
           style="opacity:1;fill:#1b1c37;fill-opacity:1;stroke-width:0.264583"
           d="m 64.643035,130.48829 -7.884293,12.22136 -1.53594,-15.96857 z"
           sodipodi:nodetypes="cccc" />
        <path
           id="path7"
           style="opacity:1;fill:#1b1c37;fill-opacity:1;stroke-width:0.264583"
           d="m 64.218641,130.48829 7.884293,12.22136 1.53594,-15.96857 z"
           sodipodi:nodetypes="cccc" />
      </g>
    </g>
    <g
       id="g16"
       transform="translate(-122.0598,58.755186)">
      <path
         id="path1"
         style="fill:#2ad2fd;fill-opacity:1;stroke-width:0.264583"
         d="m 160.93271,72.91021 a 34.141907,34.141907 0 0 0 -6.766,20.25613 34.141907,34.141907 0 0 0 0.1819,3.29799 l -5.93245,3.46645 5.1418,19.80965 1.84537,-9.1674 h 3.63905 a 34.141907,34.141907 0 0 0 1.94407,2.92179 34.141907,34.141907 0 0 0 1.92082,-2.92179 h 3.55481 l 1.84537,9.1674 5.1418,-19.80965 -5.91953,-3.45922 a 34.141907,34.141907 0 0 0 0.16898,-3.30522 34.141907,34.141907 0 0 0 -6.76599,-20.25613 z m -0.46767,16.12356 h 0.93586 v 0.50436 a 2.9253435,2.9253435 0 0 1 0.48886,0.12299 l 0.23926,-0.4439 0.82424,0.4439 -0.23926,0.44442 a 2.9253435,2.9253435 0 0 1 0.42943,0.40463 l 0.42943,-0.26459 0.49144,0.79582 -0.4284,0.2651 a 2.9253435,2.9253435 0 0 1 0.16899,0.56586 l 0.50384,-0.015 0.0279,0.93535 -0.50539,0.015 a 2.9253435,2.9253435 0 0 1 -0.13953,0.57154 l 0.44907,0.24185 -0.4439,0.82424 -0.44958,-0.24236 a 2.9253435,2.9253435 0 0 1 -0.39895,0.43356 l 0.26459,0.4284 -0.79634,0.49196 -0.26768,-0.43357 a 2.9253435,2.9253435 0 0 1 -0.64802,0.18604 v 0.50694 h -0.93586 v -0.50694 a 2.9253435,2.9253435 0 0 1 -0.48628,-0.12558 l -0.24184,0.44908 -0.82424,-0.44391 0.24236,-0.44958 a 2.9253435,2.9253435 0 0 1 -0.43305,-0.39842 2.9253435,2.9253435 0 0 1 -5.1e-4,-5.2e-4 l -0.4284,0.26458 -0.49145,-0.79634 0.43305,-0.26716 a 2.9253435,2.9253435 0 0 1 -0.16795,-0.56328 l -0.51004,0.015 -0.0279,-0.93534 0.50591,-0.015 a 2.9253435,2.9253435 0 0 1 0.13953,-0.57206 l -0.44907,-0.24184 0.44338,-0.82373 0.4501,0.24237 a 2.9253435,2.9253435 0 0 1 0.39895,-0.43357 l -0.26459,-0.4284 0.79634,-0.49196 0.26768,0.43357 a 2.9253435,2.9253435 0 0 1 0.64802,-0.18655 z" />
      <circle
         style="fill:#1b1c37;fill-opacity:1;stroke-width:0.235455"
         id="path13"
         cx="160.99365"
         cy="92.425186"
         r="2.2240131" />
      <path
         id="rect13"
         style="fill:#ffffff;fill-opacity:1;stroke-width:0.0680019"
         d="m 161.72112,92.42519 -1.45495,1.15919 v -2.31837 z"
         sodipodi:nodetypes="cccc" />
    </g>
    <g
       id="g17"
       transform="translate(48.70125,-67.773934)">
      <path
         id="path8"
         style="fill:#1b1c37;fill-opacity:1;stroke-width:0.254955"
         d="m 61.675934,182.11314 c -2.172786,0 -3.922241,1.74894 -3.922241,3.92173 v 18.85621 H 46.97709 l -0.681612,-15.19649 -14.565519,-7.40937 -2.595707,71.44681 19.431888,-7.56802 h 22.023979 v -0.0134 h 1.723409 c 2.172786,0 3.921725,-1.74946 3.921725,-3.92224 V 186.0349 c 0,-2.17279 -1.748939,-3.92173 -3.921725,-3.92173 z" />
      <path
         id="path4"
         style="fill:#ff8080;fill-opacity:1;stroke-width:0.264583"
         d="m 52.684747,216.76552 a 34.141907,34.141907 0 0 0 -6.76598,20.25613 34.141907,34.141907 0 0 0 0.1819,3.29799 l -5.93246,3.46646 5.14181,19.80964 1.84536,-9.1674 h 3.63906 a 34.141907,34.141907 0 0 0 1.94405,2.92179 34.141907,34.141907 0 0 0 1.92082,-2.92179 h 3.55482 l 1.84536,9.1674 5.14181,-19.80964 -5.91954,-3.45922 a 34.141907,34.141907 0 0 0 0.16899,-3.30523 34.141907,34.141907 0 0 0 -6.766,-20.25613 z" />
    </g>
    <path
       d="m 303.468,249.534 c 0.937,-1.957 1.461,-4.15 1.461,-6.465 0,-8.281 -6.712,-14.994 -14.993,-14.994 -8.281,0 -14.993,6.713 -14.993,14.994 0,8.281 6.712,14.994 14.993,14.994 2.315,0 4.507,-0.524 6.464,-1.461 l 16.79709,16.79787 a 16.139573,16.139573 67.500665 0 1 4.72691,11.41214 v 7.47898 a 16.139889,16.139889 112.49894 0 1 -4.72684,11.4122 l -18.36144,18.3628 A 2.2843691,2.2843691 22.498939 0 1 290.936,320.45076 V 306.191 c 5.823,-2.058 9.995,-7.612 9.995,-14.141 0,-8.281 -6.713,-14.994 -14.993,-14.994 -8.281,0 -14.994,6.713 -14.994,14.994 0,6.529 4.173,12.083 9.996,14.141 v 24.25576 a 13.315353,13.315353 112.49943 0 1 -3.89979,9.41518 l -17.51939,17.5201 A 2.0911344,2.0911344 22.499427 0 1 255.951,355.90341 V 219.96223 a 14.02763,14.02763 112.4993 0 1 4.10836,-9.91879 L 276.475,193.627 c 1.957,0.937 4.149,1.461 6.464,1.461 8.281,0 14.993,-6.713 14.993,-14.994 0,-8.281 -6.712,-14.994 -14.993,-14.994 -8.28,0 -14.993,6.713 -14.993,14.994 0,2.315 0.524,4.507 1.461,6.465 l -14.93026,14.93026 a 4.9831791,4.9831791 7.7621833e-4 0 1 -7.04738,-9e-5 L 232.5,186.559 c 0.936,-1.958 1.461,-4.15 1.461,-6.465 0,-8.281 -6.713,-14.994 -14.993,-14.994 -8.281,0 -14.994,6.713 -14.994,14.994 0,8.281 6.713,14.994 14.994,14.994 2.314,0 4.506,-0.524 6.464,-1.461 l 16.66119,16.662 a 13.189239,13.189239 67.500698 0 1 3.86281,9.32597 v 92.72824 a 2.7443828,2.7443828 157.5008 0 1 -4.68501,1.94052 l -27.70082,-27.70236 a 12.285759,12.285759 67.500796 0 1 -3.59817,-8.6871 V 254.211 c 5.823,-2.058 9.995,-7.612 9.995,-14.14 0,-8.281 -6.713,-14.995 -14.993,-14.995 -8.281,0 -14.994,6.714 -14.994,14.995 0,6.528 4.173,12.082 9.996,14.14 v 16.37194 a 0.99576806,0.99576806 157.50051 0 1 -1.69989,0.7041 L 176.10567,249.11582 A 14.059223,14.059223 67.500512 0 1 171.988,239.17463 V 217.226 c 5.824,-2.058 9.996,-7.612 9.996,-14.141 0,-8.281 -6.713,-14.994 -14.993,-14.994 -8.281,0 -14.994,6.713 -14.994,14.994 0,6.529 4.173,12.083 9.996,14.141 v 22.54842 a 22.606716,22.606716 67.500927 0 0 6.62084,15.98485 l 22.59429,22.59575 a 0.99583877,0.99583877 112.50093 0 1 -0.70419,1.69998 H 175.134 c -2.059,-5.824 -7.612,-9.996 -14.141,-9.996 -8.28,0 -14.993,6.713 -14.993,14.994 0,8.281 6.713,14.994 14.993,14.994 6.529,0 12.082,-4.172 14.141,-9.996 h 22.68127 a 12.284873,12.284873 22.500665 0 1 8.68692,3.59836 l 34.76878,34.77039 a 15.996589,15.996589 67.500665 0 1 4.68503,11.31104 v 63.47598 a 1.9580232,1.9580232 157.50062 0 1 -3.34258,1.3845 L 226.21244,388.18958 A 11.084625,11.084625 67.500623 0 1 222.966,380.35174 V 356.171 c 5.823,-2.058 9.995,-7.612 9.995,-14.14 0,-8.281 -6.712,-14.995 -14.993,-14.995 -8.281,0 -14.993,6.714 -14.993,14.995 0,6.528 4.172,12.082 9.995,14.14 v 14.18474 a 1.9016821,1.9016821 157.50086 0 1 -3.24641,1.34465 L 179.523,341.498 c 0.937,-1.958 1.461,-4.15 1.461,-6.465 0,-8.281 -6.712,-14.994 -14.993,-14.994 -8.28,0 -14.993,6.713 -14.993,14.994 0,8.281 6.713,14.994 14.993,14.994 2.315,0 4.507,-0.524 6.464,-1.461 l 30.20059,30.20239 a 1.9018429,1.9018429 112.50086 0 1 -1.34485,3.24661 H 188.128 c -2.059,-5.824 -7.612,-9.996 -14.14,-9.996 -8.281,0 -14.994,6.713 -14.994,14.994 0,8.281 6.713,14.994 14.994,14.994 6.528,0 12.081,-4.172 14.14,-9.996 h 23.17874 a 11.083724,11.083724 22.501024 0 1 7.83766,3.24663 l 18.46942,18.47074 A 21.410836,21.410836 22.501024 0 0 252.75411,420 a 17.157626,17.157626 151.47334 0 0 11.53808,-6.27162 l 18.28652,-18.28779 A 15.122314,15.122314 157.49901 0 1 293.27217,391.011 H 313.779 c 2.058,5.824 7.612,9.996 14.14,9.996 8.281,0 14.993,-6.713 14.993,-14.994 0,-8.281 -6.712,-14.994 -14.993,-14.994 -6.528,0 -12.082,4.173 -14.14,9.996 h -24.64683 a 15.122257,15.122257 157.49894 0 0 -10.69344,4.4296 l -19.1452,19.14662 a 1.9579805,1.9579805 22.498936 0 1 -3.34253,-1.38445 v -23.06918 a 12.188907,12.188907 112.49911 0 1 3.56978,-8.61859 l 24.58748,-24.58901 A 13.314389,13.314389 157.49911 0 1 293.52324,343.03 H 339.767 c 2.059,5.824 7.612,9.996 14.141,9.996 8.28,0 14.993,-6.713 14.993,-14.994 0,-8.281 -6.713,-14.994 -14.993,-14.994 -6.529,0 -12.082,4.172 -14.141,9.996 h -36.24876 a 2.2845428,2.2845428 67.499521 0 1 -1.61544,-3.89993 l 21.28926,-21.28997 a 16.139424,16.139424 112.49952 0 0 4.72694,-11.41211 v -11.61998 a 16.140103,16.140103 112.49867 0 1 4.7268,-11.41225 L 349.442,256.602 c 1.958,0.937 4.15,1.461 6.465,1.461 8.28,0 14.993,-6.713 14.993,-14.994 0,-8.281 -6.713,-14.994 -14.993,-14.994 -8.281,0 -14.994,6.713 -14.994,14.994 0,2.315 0.525,4.508 1.462,6.465 l -11.58175,11.58175 A 1.6836972,1.6836972 22.5 0 1 327.919,259.9252 V 218.226 c 5.823,-2.059 9.996,-7.613 9.996,-14.141 0,-8.281 -6.713,-14.994 -14.994,-14.994 -8.28,0 -14.993,6.713 -14.993,14.994 0,6.528 4.172,12.082 9.996,14.141 v 41.6992 a 1.6836972,1.6836972 157.5 0 1 -2.87425,1.19055 z m -129.48,143.477 c -3.313,0 -5.998,-2.686 -5.998,-5.998 0,-3.312 2.685,-5.998 5.998,-5.998 3.312,0 5.997,2.686 5.997,5.998 0,3.312 -2.685,5.998 -5.997,5.998 z m 43.98,-44.983 c -3.312,0 -5.997,-2.685 -5.997,-5.997 0,-3.313 2.685,-5.998 5.997,-5.998 3.312,0 5.997,2.685 5.997,5.998 0,3.312 -2.685,5.997 -5.997,5.997 z m -51.977,-6.997 c -3.312,0 -5.997,-2.685 -5.997,-5.998 0,-3.312 2.685,-5.997 5.997,-5.997 3.312,0 5.997,2.685 5.997,5.997 0,3.313 -2.685,5.998 -5.997,5.998 z m -4.998,-49.98 c -3.312,0 -5.997,-2.686 -5.997,-5.998 0,-3.312 2.685,-5.998 5.997,-5.998 3.313,0 5.998,2.686 5.998,5.998 0,3.312 -2.685,5.998 -5.998,5.998 z m 124.945,6.997 c -3.312,0 -5.998,-2.685 -5.998,-5.998 0,-3.312 2.686,-5.997 5.998,-5.997 3.312,0 5.997,2.685 5.997,5.997 0,3.313 -2.685,5.998 -5.997,5.998 z m 67.97,45.982 c -3.313,0 -5.998,-2.685 -5.998,-5.998 0,-3.312 2.685,-5.998 5.998,-5.998 3.312,0 5.997,2.686 5.997,5.998 0,3.313 -2.685,5.998 -5.997,5.998 z m -25.989,47.981 c -3.312,0 -5.997,-2.685 -5.997,-5.998 0,-3.312 2.685,-5.997 5.997,-5.997 3.312,0 5.997,2.685 5.997,5.997 0,3.313 -2.685,5.998 -5.997,5.998 z m 27.988,-142.944 c -3.313,0 -5.998,-2.685 -5.998,-5.998 0,-3.312 2.685,-5.997 5.998,-5.997 3.312,0 5.997,2.685 5.997,5.997 0,3.313 -2.685,5.998 -5.997,5.998 z m -32.986,-38.985 c -3.312,0 -5.997,-2.685 -5.997,-5.997 0,-3.313 2.685,-5.998 5.997,-5.998 3.313,0 5.998,2.685 5.998,5.998 0,3.312 -2.685,5.997 -5.998,5.997 z m -39.982,-23.99 c -3.312,0 -5.997,-2.685 -5.997,-5.998 0,-3.312 2.685,-5.998 5.997,-5.998 3.312,0 5.997,2.686 5.997,5.998 0,3.313 -2.685,5.998 -5.997,5.998 z m -63.971,0 c -3.313,0 -5.998,-2.685 -5.998,-5.998 0,-3.312 2.685,-5.998 5.998,-5.998 3.312,0 5.997,2.686 5.997,5.998 0,3.313 -2.685,5.998 -5.997,5.998 z m -51.977,22.991 c -3.313,0 -5.998,-2.686 -5.998,-5.998 0,-3.312 2.685,-5.998 5.998,-5.998 3.312,0 5.997,2.686 5.997,5.998 0,3.312 -2.685,5.998 -5.997,5.998 z m 37.983,36.985 c -3.312,0 -5.998,-2.685 -5.998,-5.997 0,-3.313 2.686,-5.998 5.998,-5.998 3.312,0 5.997,2.685 5.997,5.998 0,3.312 -2.685,5.997 -5.997,5.997 z m 84.962,2.999 c -3.312,0 -5.997,-2.685 -5.997,-5.998 0,-3.312 2.685,-5.997 5.997,-5.997 3.312,0 5.997,2.685 5.997,5.997 0,3.313 -2.685,5.998 -5.997,5.998 z"
       fill="#212121"
       id="path93"
       clip-path="url(#clipPath4)"
       transform="matrix(0.30485306,0,0,0.3049534,22.950836,-31.907661)"
       style="fill:#b3b3b3" />
    <g
       id="g1"
       transform="translate(-2.0582893,12.33505)">
      <path
         id="text22"
         style="font-style:normal;font-variant:normal;font-weight:normal;font-stretch:normal;font-size:52.9167px;font-family:Gidugu;-inkscape-font-specification:'Gidugu, Normal';font-variant-ligatures:normal;font-variant-caps:normal;font-variant-numeric:normal;font-variant-east-asian:normal;fill:#1b1c37;fill-opacity:1;stroke-width:0.264583"
         d="m 142.1415,230.26675 c -0.007,2.70413 0.013,5.46255 -0.01,8.13281 -2.48795,-2.20682 -6.35678,-2.36794 -9.22539,-0.838 -2.81954,1.57707 -4.10439,4.90302 -4.27887,7.99066 -0.27309,3.48088 0.57174,7.32745 3.27243,9.72851 2.93623,2.57542 7.90441,2.45626 10.61855,-0.4007 0,0.58724 0,1.17448 0,1.76172 1.92252,0 3.84505,0 5.76757,0 0,-8.9681 0,-17.9362 0,-26.9043 -2.04817,0 -4.09635,0 -6.14453,0 0,0.17643 0,0.35287 0,0.5293 z m -44.837887,6.3164 c -2.657681,0.0865 -5.564261,1.03679 -6.990265,3.4427 -0.489685,0.75405 -0.743844,1.62238 -1.013641,2.47137 1.846641,0.32951 3.693889,0.65563 5.541015,0.98242 0.342997,-1.17964 1.208045,-2.38965 2.542805,-2.44802 1.234153,-0.11038 2.956133,0.16029 3.244293,1.60819 -0.0196,0.36484 0.3554,1.13732 -0.15643,1.23928 -2.755701,0.88722 -5.692052,0.9815 -8.392354,2.16433 -1.323084,0.49445 -2.414559,1.54187 -2.842243,2.90332 -0.91779,2.41588 -0.221394,5.47729 2.010179,6.93134 2.31693,1.51478 5.410633,1.58011 7.933379,0.54968 0.78257,-0.3274 1.510639,-0.77911 2.170139,-1.3114 0.15206,0.51312 0.33325,1.01695 0.5,1.52539 2.00847,0 4.01692,0 6.02539,0 -1.56406,-3.11746 -1.14952,-6.69609 -1.17888,-10.06239 0.002,-2.61621 0.26878,-5.54843 -1.36409,-7.78527 -1.41167,-1.81626 -3.90358,-2.07018 -6.035157,-2.20508 -0.664989,-0.0174 -1.329174,-0.0364 -1.99414,-0.006 z m 19.771487,0 c -2.65778,0.0865 -5.56294,1.03829 -6.99027,3.4427 -0.4859,0.75569 -0.74297,1.62212 -1.01169,2.47137 1.84664,0.32951 3.69389,0.65563 5.54102,0.98242 0.34492,-1.17898 1.20524,-2.39016 2.5428,-2.44802 1.23349,-0.11088 2.95481,0.15855 3.2443,1.60819 -0.019,0.36504 0.35174,1.13682 -0.1583,1.23956 -2.72466,0.87808 -5.62125,0.97725 -8.29871,2.12435 -1.32204,0.48584 -2.4525,1.48879 -2.89963,2.84912 -0.95858,2.41543 -0.29959,5.50848 1.93087,6.99399 2.29083,1.53176 5.36482,1.60952 7.88672,0.62109 0.81586,-0.33392 1.57544,-0.79807 2.26171,-1.34961 0.15301,0.51219 0.33323,1.01566 0.5,1.52344 2.00782,0 4.01563,0 6.02344,0 -1.57475,-3.15043 -1.14457,-6.76357 -1.17807,-10.16239 0.007,-2.58508 0.24975,-5.47762 -1.36294,-7.68527 -1.41213,-1.81524 -3.90344,-2.07021 -6.03516,-2.20508 -0.66564,-0.0175 -1.33048,-0.0364 -1.99609,-0.006 z m 41.56445,-0.01 c -2.78668,0.0499 -5.52526,1.49651 -6.98568,3.89638 -1.87799,2.939 -2.13248,6.7044 -1.28924,10.0278 0.677,2.49664 2.26745,4.93709 4.7922,5.84974 2.47024,0.91983 5.24391,0.99094 7.79203,0.36192 2.56838,-0.61666 4.64642,-2.66491 5.45046,-5.16123 0.60253,-0.77921 -0.34508,-0.67478 -0.89923,-0.79644 -1.65273,-0.28009 -3.30547,-0.56017 -4.9582,-0.84028 -0.27188,1.23762 -0.94728,2.71304 -2.39023,2.82111 -1.49422,0.2283 -3.07864,-0.6156 -3.54922,-2.09064 -0.25573,-0.65592 -0.38715,-1.35263 -0.45898,-2.05078 4.2246,0 8.44921,0 12.67382,0 0.0241,-3.30098 -0.39123,-6.9377 -2.73828,-9.46289 -1.88294,-2.02785 -4.76851,-2.66304 -7.43945,-2.55469 z m -19.69922,4.46094 c 1.61738,0.0744 2.69365,1.55514 2.9643,3.03597 0.44329,2.33473 0.52767,4.99016 -0.81011,7.06452 -1.10186,1.96124 -4.34018,1.88812 -5.38469,-0.0842 -1.04785,-1.95792 -1.04001,-4.29813 -0.80787,-6.45341 0.16654,-1.56069 1.07032,-3.30929 2.78774,-3.51658 0.41276,-0.0743 0.83343,-0.0749 1.25063,-0.0463 z m 20.94141,-0.004 c 1.45119,0.041 2.44379,1.3522 2.66845,2.68801 0.0904,0.38681 0.14491,0.7817 0.1792,1.17722 -2.14258,0 -4.28515,0 -6.42773,0 0.0384,-1.48166 0.52332,-3.35888 2.16938,-3.75822 0.45794,-0.1293 0.93892,-0.13756 1.4107,-0.10701 z m -59.16797,7.20703 c -0.003,1.61802 -0.26965,3.66011 -1.921876,4.41992 -1.253635,0.57082 -3.145675,0.35057 -3.697211,-1.08262 -0.412394,-1.03211 -0.02168,-2.5326 1.224765,-2.70469 1.445438,-0.47491 2.906933,-0.90905 4.394322,-1.23222 0,0.19987 0,0.39974 0,0.59961 z m 19.77148,0 c -0.004,1.61737 -0.26652,3.65985 -1.91992,4.41992 -1.25339,0.57043 -3.1457,0.3505 -3.69721,-1.08262 -0.41786,-1.03166 -0.0188,-2.53251 1.22476,-2.70469 1.44479,-0.47492 2.90582,-0.90823 4.39237,-1.23222 0,0.19987 0,0.39974 0,0.59961 z" />
      <g
         id="g97">
        <path
           id="circle12"
           style="fill:#2ad2fd;stroke-width:0.264583"
           d="m 72.084469,251.55783 a 3.4386008,3.4386008 0 0 1 -3.4386,3.4386 3.4386008,3.4386008 0 0 1 -3.438601,-3.4386 3.4386008,3.4386008 0 0 1 3.438601,-3.4386 3.4386008,3.4386008 0 0 1 3.4386,3.4386 z" />
        <path
           id="path14"
           style="fill:#fd552a;fill-opacity:1;stroke-width:0.101467"
           d="m 69.33665,278.87991 c -3.52997,-2.77062 -2.47816,-7.5811 -5.70512,-6.33264 -2.13743,0.89377 -4.00525,-1.02478 -4.91819,-4.91817 6.80605,2.74246 13.2958,1.9547 19.86506,0.24756 -1.55246,7.14689 -10.58577,5.71528 -9.24175,11.00325 z"
           sodipodi:nodetypes="ccccc" />
        <path
           id="path15"
           style="fill:#1b1c37;fill-opacity:1;stroke-width:0.254955"
           d="m 77.63724,196.98352 c -2.172777,0 -3.922241,1.74894 -3.922241,3.92172 v 18.85622 H 62.938396 l -0.681612,-15.19649 -14.565519,-7.40937 -2.595708,71.4468 12.312944,-4.79557 -1.278992,-4.92735 5.932455,-3.46645 a 34.141907,34.141907 0 0 1 -0.181901,-3.29799 34.141907,34.141907 0 0 1 6.765995,-20.25613 34.141907,34.141907 0 0 1 6.765995,20.25613 34.141907,34.141907 0 0 1 -0.168982,3.30522 l 5.919536,3.45922 -0.559139,2.15491 h 5.947957 v -0.0134 h 1.723409 c 1.680199,0 3.096077,-1.05101 3.656624,-2.53007 a 8.9014349,12.166552 0 0 1 -5.884395,-11.4205 8.9014349,12.166552 0 0 1 6.149495,-11.54399 v -34.62119 c 0,-2.17278 -1.748946,-3.92172 -3.921724,-3.92172 z" />
        <path
           id="path89"
           clip-path="url(#clipPath4)"
           style="opacity:0.08;fill:#ffffff"
           d="m 292.96594,186.45411 c -5.58032,0 -10.26404,3.53716 -12.05404,8.48301 0.66432,0.0899 1.33831,0.15082 2.02737,0.15082 5.99787,0 11.13298,-3.54547 13.5305,-8.63383 z m 29.95457,2.63675 c -8.27999,0 -14.99169,6.71255 -14.99169,14.99354 0,6.52799 4.17047,12.08217 9.99446,14.14117 v 41.69993 a 1.6836972,1.6836972 0 0 1 -2.87324,1.18959 l -11.58279,-11.58068 c 0.937,-1.957 1.4612,-4.14978 1.4612,-6.46478 0,-8.28099 -6.7107,-14.99523 -14.9917,-14.99523 -3.78317,0 -7.19896,1.44866 -9.83681,3.76025 v 22.46828 c 2.63785,2.31158 6.05364,3.76024 9.83681,3.76024 2.315,0 4.50652,-0.52372 6.46352,-1.46071 l 16.797,16.79825 a 16.139573,16.139573 0 0 1 4.72601,11.41122 v 7.47983 a 16.139889,16.139889 0 0 1 -4.72601,11.41122 l -18.3616,18.36234 a 2.2843691,2.2843691 0 0 1 -3.90049,-1.61493 V 306.1906 c 5.823,-2.05799 9.99616,-7.61217 9.99616,-14.14117 0,-8.28099 -6.7134,-14.99354 -14.99339,-14.99354 -8.28099,0 -14.99339,6.71255 -14.99339,14.99354 0,6.529 4.17317,12.08318 9.99616,14.14117 v 24.25605 a 13.315353,13.315353 0 0 1 -0.70348,3.53318 111.99463,111.95778 0 0 1 3.35635,13.46504 l 0.51532,-0.51515 a 13.314389,13.314389 0 0 1 9.41473,-3.8992 h 27.63055 a 29.1991,39.89643 0 0 1 2.56303,-9.99626 H 303.5181 a 2.2845428,2.2845428 0 0 1 -1.61545,-3.9009 l 21.28908,-21.28886 a 16.139424,16.139424 0 0 0 4.72771,-11.41291 v -11.61966 a 16.140103,16.140103 0 0 1 4.72601,-11.41292 l 8.07897,-8.078 v -14.13609 l -9.93174,9.93017 a 1.6836972,1.6836972 0 0 1 -2.87324,-1.18959 v -41.69993 c 5.82299,-2.059 9.99616,-7.61318 9.99616,-14.14117 0,-8.28099 -6.71409,-14.99354 -14.99509,-14.99354 z m 0,8.99646 c 3.313,0 5.99905,2.68408 5.99905,5.99708 0,3.312 -2.68605,5.99708 -5.99905,5.99708 -3.31199,0 -5.99735,-2.68508 -5.99735,-5.99708 0,-3.313 2.68536,-5.99708 5.99735,-5.99708 z m -117.94686,26.98939 c -4.83749,0 -9.09369,2.32894 -11.83537,5.88523 l -0.63228,17.38288 c 1.78367,2.68193 4.38218,4.77513 7.47042,5.8666 v 16.37122 a 0.99576806,0.99576806 0 0 1 -1.70021,0.70494 l -6.37198,-6.37327 -0.50515,13.90224 a 0.99583877,0.99583877 0 0 1 -0.0186,0.5304 l -0.38988,10.70459 h 6.82458 a 12.284873,12.284873 0 0 1 8.68752,3.59756 l 34.76872,34.77085 a 15.996589,15.996589 0 0 1 4.43954,8.54232 111.99463,111.95778 0 0 1 10.24025,-24.58649 v -51.22849 h -9.99446 v 51.19629 a 2.7443828,2.7443828 0 0 1 -4.68533,1.94028 l -27.70174,-27.7028 a 12.285759,12.285759 0 0 1 -3.59706,-8.68636 v -23.68328 c 5.82299,-2.058 9.99446,-7.61318 9.99446,-14.14117 0,-8.28099 -6.7134,-14.99354 -14.99339,-14.99354 z m 0,8.99646 c 3.312,0 5.99736,2.68408 5.99736,5.99708 0,3.31199 -2.68536,5.99707 -5.99736,5.99707 -3.31199,0 -5.99735,-2.68508 -5.99735,-5.99707 0,-3.313 2.68536,-5.99708 5.99735,-5.99708 z m 84.9631,2.99939 c 3.312,0 5.99566,2.68508 5.99566,5.99707 0,3.313 -2.68366,5.99708 -5.99566,5.99708 -3.31199,0 -5.99735,-2.68408 -5.99735,-5.99708 0,-3.31199 2.68536,-5.99707 5.99735,-5.99707 z m -3.9988,48.9798 c 3.312,0 5.99736,2.68508 5.99736,5.99707 0,3.313 -2.68536,5.99877 -5.99736,5.99877 -3.31199,0 -5.99735,-2.68577 -5.99735,-5.99877 0,-3.31199 2.68536,-5.99707 5.99735,-5.99707 z m -67.96946,40.98313 c -8.28099,0 -14.99339,6.71424 -14.99339,14.99523 0,6.52799 4.17147,12.08148 9.99446,14.13948 v 14.18523 a 1.9016821,1.9016821 0 0 1 -3.24616,1.34548 l -20.93989,-20.93977 -0.49498,13.63957 14.36789,14.36825 a 1.9018429,1.9018429 0 0 1 -1.34593,3.24679 h -13.183 c -0.12236,-0.34611 -0.29591,-0.66589 -0.44243,-0.9998 l -0.47463,13.06851 c 0.35528,-0.66299 0.66325,-1.35622 0.91706,-2.07415 h 23.17915 a 11.083724,11.083724 0 0 1 7.83827,3.2468 l 6.46351,6.46477 -3.19362,-12.29917 3.32415,-1.94198 a 11.084625,11.084625 0 0 1 -2.77323,-7.12905 V 356.1702 c 5.82299,-2.058 9.99446,-7.61149 9.99446,-14.13948 0,-8.28099 -6.7107,-14.99523 -14.99169,-14.99523 z m 0,8.99815 c 3.31199,0 5.99735,2.68408 5.99735,5.99708 0,3.312 -2.68536,5.99708 -5.99735,5.99708 -3.312,0 -5.99736,-2.68508 -5.99736,-5.99708 0,-3.313 2.68536,-5.99708 5.99736,-5.99708 z m 106.98957,35.31311 c -5.20211,1.04658 -9.44222,4.75238 -11.17936,9.66751 h -23.64192 l 14.39331,8.40845 -0.41191,1.58781 h 9.66052 c 0.73485,2.07956 1.9313,3.93495 3.4428,5.47854 h 4.98537 v -0.0441 h 5.65324 c 5.5115,0 10.15597,-3.44649 11.99471,-8.29661 a 29.1991,39.89643 0 0 1 -6.58726,-4.79732 c 0.40179,0.80512 0.64924,1.70122 0.64924,2.66217 0,3.31299 -2.68536,5.99707 -5.99736,5.99707 -3.312,0 -5.99735,-2.68408 -5.99735,-5.99707 0,-3.312 2.68535,-5.99708 5.99735,-5.99708 1.05261,0 2.02692,0.29468 2.8868,0.77103 a 29.1991,39.89643 0 0 1 -5.84818,-9.44044 z"
           transform="matrix(0.30485306,0,0,0.3049534,-11.674443,140.12351)" />
      </g>
    </g>
  </g>
</svg>
